<?xml version="1.0" standalone="no"?>
<!DOCTYPE svg PUBLIC "-//W3C//DTD SVG 1.1//EN" "http://www.w3.org/Graphics/SVG/1.1/DTD/svg11.dtd" >
<!--
2013-9-30: Created.
-->
<svg>
<metadata>
Created by iconfont
</metadata>
<defs>

<font id="fontFamily" horiz-adv-x="1024" >
  <font-face
    font-family="fontFamily"
    font-weight="500"
    font-stretch="normal"
    units-per-em="1024"
    ascent="896"
    descent="-128"
  />
    <missing-glyph />
    
    <glyph glyph-name="cuowu" unicode="&#58888;" d="M512 812C229.23 812 0 582.77 0 300s229.23-512 512-512c282.768 0 512 229.23 512 512C1024 582.77 794.77 812 512 812zM746.76 155.748c7.808-7.808 7.806-20.472 0.002-28.284l-62.228-62.224c-7.808-7.808-20.47-7.814-28.286-0.002L512 209.49l-144.25-144.25c-7.81-7.812-20.474-7.808-28.284 0l-62.226 62.224c-7.81 7.808-7.812 20.472 0 28.284L421.492 300l-144.25 144.25c-7.81 7.808-7.81 20.474 0 28.284l62.226 62.224c7.81 7.812 20.474 7.81 28.284 0L512 390.51l144.252 144.25c7.806 7.812 20.47 7.81 28.282 0l62.226-62.224c7.806-7.812 7.808-20.474 0-28.284L602.51 300 746.76 155.748z"  horiz-adv-x="1024" />

    
    <glyph glyph-name="f14" unicode="&#58900;" d="M924.3536 139.46687999999995L837.27968 268.25088000000005c-3.4272 4.91712-10.57824 8.64096-19.29216 9.98112-8.64192 1.26624-17.87712 0-24.72864-3.576L615.83456 183.63552000000004c-8.04576-4.09632-11.54496-10.42656-9.23712-16.6848 2.45856-6.18048 10.42848-11.09856 20.5584-12.58656l46.85184-7.00224c-46.55424-54.672-108.22656-87.89184-168.41184-87.89184-117.24 0-248.03712 128.6352-248.03712 312.98688 0 21.74976-29.1984 39.552-65.24928 39.552s-65.24928-17.80224-65.24928-39.552c0-219.73248 166.25088-391.94208 378.53472-391.94208 119.92128 0 227.62752 54.14976 297.86592 147.33216l89.83008-13.5552c2.30784-0.29952 4.54272-0.44736 6.77856-0.44736 0.14784 0 0.14784 0 0.37248 0 15.41856 0 27.93216 7.52256 27.93216 16.83264C928.37408 133.95551999999998 926.88416 136.85951999999997 924.3536 139.46687999999995L924.3536 139.46687999999995zM206.31296 496.40064c-8.71488 1.34016-15.93984 4.91616-19.29216 9.98016L98.30912 637.4015999999999c-4.02144 5.8848-2.08512 12.81216 4.7664 17.50464 6.85344 4.91616 17.72832 6.9264 27.85824 5.43744l89.904-13.55616c70.24032 93.03168 177.9456 147.40608 297.86784 147.40608 212.28288 0 378.53376-172.28448 378.53376-392.01696 0-21.89856-29.19744-39.552-65.25024-39.552-36.04992 0-65.24832 17.65344-65.24832 39.552 0 184.35168-130.72224 312.98784-248.0352 312.98784-60.18432 0-121.85952-33.21984-168.4128-87.8928l46.85184-7.00224c10.20384-1.71264 18.09984-6.40512 20.55744-12.58752 2.38368-6.25728-1.19232-12.8112-9.2352-16.90752l-177.4992-90.94752c-5.06496-2.6064-11.47104-3.8736-17.95104-3.8736C210.70784 495.95328 208.47296 496.10304 206.31296 496.40064z"  horiz-adv-x="1024" />

    
    <glyph glyph-name="mianji" unicode="&#58886;" d="M871.19814362 595.2347199999999c13.23591284 0 23.94555908 10.71005081 23.94555908 23.94457773L895.1437027 745.71169712c0 13.23536985-10.70964707 23.94542148-23.94555908 23.94542148L744.63610752 769.6571186c-13.21230268 0-23.94471616-10.71005081-23.94471616-23.94542148L720.69139136 706.37995798l-77.73242158 0c-2.42002085 0.37184161-4.88473242 0.37184161-7.30390951 0L303.3102945 706.37995798 303.3102945 745.71169712c0 13.23536985-10.73410016 23.94542148-23.94640202 23.94542148L152.80269931 769.6571186c-13.23591284 0-23.94640201-10.71005081-23.94640201-23.94542148l0-126.53239856c0-13.23536985 10.71048999-23.94457773 23.94640201-23.94457773l39.33419376 0 0-417.41037103L152.80269931 177.82434980000005c-13.23591284 0-23.94640201-10.70920789-23.94640201-23.94457773l0-126.53239856c0-13.23536985 10.71048999-23.94457773 23.94640201-23.94457773l126.56119317 0c13.21230268 0 23.94640201 10.70920789 23.94640201 23.94457773l1e-8 39.33258288 417.38025393 0 0-39.33258288c0-13.23536985 10.73325641-23.94457773 23.94471616-23.94457773l126.5620361 0c13.23591284 0 23.94555908 10.70920789 23.94555908 23.94457773L895.14285977 153.87892832c0 13.23536985-10.70964707 23.94457773-23.94555908 23.94457773l-39.33419376 0L831.86310693 513.70780801c0.04131739 0.81113791 0.04131739 1.62396167 0 2.43509875l0 79.09181324L871.19814362 595.2347199999999zM768.58335327 721.76627563l78.66754541 0 0-78.64155642-78.6675454 0L768.58335327 721.76627563zM240.0296979 426.91187421c1.40732227 0.90810324 2.7429711 1.97303769 3.97574836 3.20576386l228.37999109 228.37147695 108.83011239 0L240.0296979 317.31639899000004 240.0296979 426.91187421zM176.74910132 721.76627563l78.6675454 0 0-38.42026336c-0.01180508-0.30270108-0.02276642-0.60540217-0.02276641-0.91147577s0.01180508-0.60877469 0.02276641-0.91147577l0-38.3983407-78.6675454 0L176.74910132 721.76627563zM279.36389248 595.2347199999999c13.21230268 0 23.94640201 10.71005081 23.94640202 23.94457773l0 39.30981647 101.35165786 0L240.0296979 493.86360645 240.0296979 595.2347199999999 279.36389248 595.2347199999999zM240.0296979 249.59653206999997l408.91018059 408.89258295 71.75151287 0 0-29.3392326L269.34736628 177.82434980000005l-29.31766838-1e-8L240.0296979 249.59653206999997zM176.74910132 51.291951229999995l0 78.64155644 78.6675454 0 0-38.39749778c-0.01180508-0.30270108-0.02276642-0.60624509-0.02276641-0.91147577s0.01180508-0.60877469 0.02276641-0.91147577l0-38.42026337L176.74910132 51.29279416999998zM783.9703021 349.60001093000005L554.66952267 120.30946939c-1.73786133-1.73779046-3.15024363-3.67541455-4.24220361-5.73951462L441.43952512 114.56995476999998l342.53077698 342.51674222L783.9703021 349.60001093000005zM847.25089868 51.291951229999995l-78.6675454 0 0 78.64155644 78.6675454 0L847.25089868 51.291951229999995zM744.63610752 177.82434980000005c-13.21230268 0-23.94471616-10.70920789-23.94471616-23.94457773l0-39.30897355L616.65410113 114.57079769999996l167.31704389 167.30934548 0-104.05495047L744.63610752 177.82519271zM783.9703021 524.8074076600001L373.71604014 114.56995476999998l-70.40574565 0 0 29.49437796 451.18887397 451.16954435 29.47113281 0L783.9703021 524.8074076600001z"  horiz-adv-x="1024" />

    
    <glyph glyph-name="wangzhan" unicode="&#58945;" d="M162.9252749 453.43793115c50.86678623 173.69061503 162.29311875 297.57578906 366.03757178 315.23263067 14.03090948 1.22992383 33.67478231 0.1167082 49.69272305 3.1571042 13.79749394 2.68927471 30.63438633 12.62742012 46.53661553 19.17604247 64.54258418 26.42491318 207.19183097 72.84482138 279.21770068 15.90223008 62.49470625-49.5201542 50.98050175-169.8931125 12.39500127-248.40675615C947.61683018 496.46731787 970.41381612 410.05941651 957.14500097 313.30139999999994c-181.00133174-7.42243711-391.93480547-0.99152051-567.7610792-3.2139624 5.90223867-93.42335654 64.74707315-164.9813959 152.03377706-175.09310772 85.2956833-9.88228565 144.28615254 38.17452919 183.04621699 92.3111376 72.37599433 0 144.75298535 0 217.13097392 0-56.41491094-161.59187285-199.82625205-286.93539932-421.86794501-270.6830455-50.51267227 3.74164278-89.85528018 18.41793838-133.44227227 35.07727499-72.75803818-39.69771943-233.76038555-98.62833867-297.81020215-15.90123252-48.64135254 62.78797266-17.39150508 177.02627255 9.29774708 251.50800058 54.01890352 150.89362823 156.85372266 300.38077354 257.50101269 385.32633224 0.58054834 2.63341406 3.09625664 3.21795177 3.09625664 6.37505684C278.85933388 578.5490387699999 225.25040586 511.49473565 162.9252749 453.43793115zM926.10363271 689.04370166C923.11909648 797.43362754 782.925708 786.79323779 708.91181035 743.18031006c82.66526105-32.97253887 142.99937138-88.86375967 192.34196983-155.97891035C912.01187479 621.2273041999999 927.21186055 649.46667979 926.10363271 689.04370166zM389.38392178 424.79157276c114.79091748 0 229.61176084 0 344.37275332 0C723.76167237 646.24872802 400.1968795 628.35946758 389.38392178 424.79157276zM134.98415351 36.247288769999955c17.27479687-98.04380098 154.95247705-69.51415078 217.18783214-25.49025088-81.70067373 45.71866143-132.59439316 122.94552393-173.75246016 210.23322451C159.33026621 173.75339766000002 123.58167031 101.02428691 134.98415351 36.247288769999955z"  horiz-adv-x="1024" />

    
    <glyph glyph-name="wushuju" unicode="&#58890;" d="M756.64347822 652.18695615l0.01304386 0L497.37826075 781.82608682 238.56956562 652.42173925 238.08695644 652.42173925l1e-8-259.52608652 259.2913043-129.63913066 259.29130429 129.63913066L756.66956503 652.18695615 756.64347822 652.18695615 756.64347822 652.18695615zM497.37826075 750.41739112l194.97391347-97.73478282-74.24347852-37.43478281L422.19565244 712.69565244 497.37826075 750.41739112 497.37826075 750.41739112zM388.2173917 694.30434756l198.43043466-95.60869542-89.28260859-43.23913066L302.40434815 652.18695615 388.2173917 694.30434756 388.2173917 694.30434756zM270.50000029 619.3956521499999l10.30434786 0-10.30434786 0.37826103 0 16.2 210.67826046-105.33913066 0-226.87826045L270.50000029 409.09565185 270.50000029 619.3956521499999 270.50000029 619.3956521499999zM724.25652207 603.5608693300001l0-194.46521748-210.67826045-105.33913066L513.57826074 530.63478252l210.67826045 105.33913066L724.25652207 603.5608693300001 724.25652207 603.5608693300001zM198.27826104-11.934782519999999l0-12.41739141L182.57391318-24.35217393000005c0.4826083 3.53478252 0.82173955 6.91304326 1.00434815 10.13478223 0.18260859 3.22173896 0.27391289 5.93478281 0.27391289 8.12608682l0 37.9826086c0 1.82608682-0.0913043 4.0173917-0.27391289 6.57391289-0.18260859 2.55652207-0.57391347 5.04782578-1.18695674 7.48695673 2.19130401-0.24782607 4.90434786-0.45652148 8.12608682-0.63913008s7.03043438-0.36521719 11.41304326-0.54782578c4.38260888-0.18260859 9.46956533-0.29999971 15.24782637-0.36521719 5.77826104-0.06521748 12.39130459-0.0913043 19.81304385-0.0913043 7.55217422 0 14.17826075 0.02608682 19.90434813 0.0913043 5.72608653 0.06521748 10.74782637 0.18260859 15.06521778 0.36521719s8.03478252 0.36521719 11.13913037 0.54782578c3.10434786 0.18260859 5.75217422 0.39130401 7.94347823 0.63913008-0.36521719-1.94347792-0.63913008-4.04347852-0.82173956-6.3s-0.27391289-4.83913037-0.27391289-7.76086962l0-33.96521778c0-2.80434815 0.0913043-5.68695674 0.27391289-8.67391347s0.52173896-6.18260888 1.00434815-9.58695645L275.52173926-20.334782229999973l-1e-8 8.39999971L198.27826104-11.934782519999999zM263.46956504 92.15217393c-0.24782607-3.40434756-0.73043437-7.09565185-1.46086963-11.04782607-0.73043437-3.95217422-1.64347822-7.82608711-2.73913067-11.59565187-1.09565244-3.76956563-2.34782578-7.23913067-3.74347792-10.40869599s-2.83043497-5.66086992-4.2913046-7.48695674c-4.26521778 3.03913037-9.24782607 5.36086934-14.97391347 6.93913008 3.28695644 2.80434815 5.96086963 6.14347822 8.03478252 10.04347793 2.07391289 3.89999971 3.58695615 8.60869599 4.56521748 14.15217393 0.97826045 5.54347793 1.43478281 12.1173917 1.36956533 19.72173954-0.06521748 7.60434785-0.57391347 16.52608652-1.55217392 26.75217393 4.26521778 0.36521719 8.73913008 0.93913066 13.42173955 1.73478252 4.68260859 0.79565185 9.31304356 1.76086933 13.87826103 2.92173926 4.56521748 1.16086992 8.97391318 2.43913008 13.23913008 3.83478223 4.26521778 1.39565215 8.1 2.89565244 11.50434756 4.47391318 1.46086963-2.43913008 2.94782607-4.83913037 4.47391318-7.21304385 1.52608711-2.37391347 3.07826104-4.53913066 4.65652178-6.48260859 1.21304355-1.34347852 1.61739141-2.2826083 1.18695674-2.83043496-0.43043467-0.54782578-1.43478281-0.57391347-3.01304356-0.0913043-0.61304326 0.11739112-1.8 0.15652178-3.56086933 0.0913043-1.76086933-0.06521748-4.38260888-0.36521719-7.85217393-0.91304385-3.46956503-0.54782578-7.91739141-1.30434786-13.33043438-2.2826083-5.41304385-0.97826045-12.02608652-2.25652148-19.81304385-3.83478223l0-14.60869541 27.02608682 0c3.28695644 0 6.18260888 0.02608682 8.67391348 0.0913043 2.49130459 0.06521748 4.77391289 0.11739112 6.84782579 0.18260859 2.07391289 0.06521748 4.04347852 0.18260859 5.93478281 0.36521719s3.74347793 0.39130401 5.56956562 0.63913008l0-14.42608682c-3.28695644 0.24782607-6.50869541 0.4826083-9.67826074 0.73043437-3.16956533 0.24782607-7.05652207 0.43043467-11.68695615 0.54782579l0-16.06956504c0-4.38260888 0.06521748-8.28260859 0.18260859-11.68695615 0.11739112-3.40434756 0.43043467-7.23913067 0.91304385-11.50434756L280.99999971 52.8913043c0.36521719 4.26521778 0.63913008 8.1 0.82173954 11.50434755 0.18260859 3.40434756 0.27391289 7.30434815 0.27391289 11.68695616l0 16.06956504L263.46956504 92.15217393zM199.19130401 97.44782578000002c-0.11739112 3.76956563-0.20869541 6.66521719-0.27391289 8.67391347s-0.20869541 3.56086934-0.45652149 4.65652179c0.84782636-0.24782607 1.91739112-0.43043467 3.19565214-0.54782578 1.27826104-0.11739112 2.58260888-0.24782607 3.92608653-0.36521719 1.34347852-0.11739112 2.64782636-0.20869541 3.92608652-0.27391289 1.27826104-0.06521748 2.40000029-0.02608682 3.37826075 0.09130429 0.97826045 0.11739112 1.52608711-0.18260859 1.64347822-0.91304385 0.11739112-0.73043437-0.29999971-1.27826104-1.27826103-1.64347822-1.21304355-0.61304326-1.82608682-1.94347792-1.82608682-4.0173917l0-4.93043466c7.30434815 0.4826083 13.21304326 0.97826045 17.71304326 1.46086962 4.5 0.4826083 8.03478252 1.03043497 10.59130459 1.64347822l0-12.78260859c-1.21304355 0.11739112-2.55652207 0.24782607-4.0173917 0.36521719-1.46086963 0.11739112-3.26086963 0.11739112-5.38695615 0-2.12608653-0.11739112-4.72173926-0.27391289-7.76086963-0.45652149s-6.75652148-0.45652148-11.13913037-0.82173955l0-12.96521719c4.13478281 0.4826083 8.24347793 1.03043497 12.32608711 1.64347823C227.83478222 76.87826073999997 231.99565185 77.47826104 236.26086963 78.09130430000005c-0.73043437-1.94347792-1.25217422-4.0826083-1.55217393-6.3913043-0.29999971-2.30869599-0.39130401-4.31739141-0.27391289-6.02608711-7.66956533-0.36521719-15.27391318-0.91304385-22.82608653-1.64347822 0-2.30869599 0.0913043-4.5913043 0.27391289-6.84782579 0.18260859-2.25652148 0.39130401-4.5913043 0.63913008-7.03043437L198.09565244 50.15217362999999c0.24782607 2.19130401 0.43043467 4.29130459 0.54782579 6.30000001 0.11739112 2.00869541 0.24782607 4.04347852 0.36521718 6.1173914-6.09130459-0.84782636-12.14347852-1.76086933-18.16956562-2.73913066-6.02608711-0.97826045-12.14347852-2.12608653-18.35217422-3.46956504-0.11739112 2.43913008-0.36521719 4.83913037-0.73043438 7.21304384-0.36521719 2.37391347-1.03043497 5.02173896-2.00869541 7.94347823 7.05652207 0.11739112 13.85217422 0.29999971 20.36086963 0.54782578s12.87391289 0.66521778 19.0826086 1.27826104l0 13.33043437c-9.13043496-0.73043437-16.13478252-1.46086963-20.99999971-2.19130401s-8.76521778-1.46086963-11.68695615-2.191304c-0.36521719 4.26521778-1.52608711 8.33478222-3.46956505 12.23478281 1.7086957 1.7086957 3.71739112 4.5 6.02608711 8.39999971s4.68260859 8.33478222 7.12173956 13.33043437c-3.65217364 0-6.91304326-0.0913043-9.76956505-0.27391289s-5.50434815-0.45652148-7.94347821-0.82173955l0 14.42608682c2.92173926-0.4826083 6.09130459-0.84782636 9.49565214-1.09565244s7.91739141-0.43043467 13.51304385-0.54782579c2.19130401 5.36086934 3.95217422 10.47391347 5.29565185 15.33913067 2.55652207-1.09565244 5.32173955-2.07391289 8.30869542-2.92173926 2.98695674-0.84782636 5.32173955-1.21304355 7.03043437-1.09565243 1.57826074 0.11739112 2.58260888-0.43043467 3.01304355-1.64347823s-0.45652148-2.30869599-2.64782636-3.28695645c-1.09565244-0.4826083-2.19130401-1.21304355-3.28695645-2.191304-1.09565244-0.97826045-2.25652148-2.37391347-3.46956504-4.2000003 5.96086963 0 11.13913037 0.02608682 15.52173926 0.0913043 4.38260888 0.06521748 8.21739112 0.18260859 11.50434756 0.36521719s6.09130459 0.36521719 8.3999997 0.54782578 4.38260888 0.39130401 6.20869571 0.63913008l0-14.42608681c-1.82608682 0.24782607-3.95217422 0.45652148-6.3913043 0.63913008s-5.50434815 0.29999971-9.22173925 0.36521718c-3.71739112 0.06521748-8.1913043 0.11739112-13.42173956 0.1826086-5.23043437 0.06521748-11.50434756 0.0913043-18.8086957 0.0913043l-10.40869599-20.08695675L199.19130401 97.44782578000002zM275.52173926 21.299999999999955l-1e-8 11.68695615L198.27826104 32.98695614999997l0-11.68695615L275.52173926 21.299999999999955zM198.27826104 10.708695410000018l0-12.05217422L275.52173926-1.343477929999949l-1e-8 12.05217422L198.27826104 10.708695410000018zM419.59999971 80.28260829999999c7.30434815 0 14.67391289 0.02608682 22.09565214 0.0913043 7.42173926 0.06521748 14.4913043 0.11739112 21.18260831 0.18260859 6.69130401 0.06521748 12.89999971 0.18260859 18.62608711 0.36521719 5.72608653 0.18260859 10.52608711 0.39130401 14.42608681 0.63913008l0-16.25217364c-5.84347852 0.36521719-13.42173955 0.63913008-22.73478223 0.82173956-9.31304356 0.18260859-19.33043467 0.27391289-30.03913037 0.27391289l0-57.70434815c0-2.80434815 0.88695615-4.68260859 2.64782637-5.66086992 1.76086933-0.97826045 4.95652148-1.46086963 9.58695645-1.46086962 6.2086957 0 11.02173926 0.15652178 14.42608682 0.45652148 3.40434756 0.29999971 6.02608711 1.21304355 7.85217391 2.73913066s3.13043467 3.92608652 3.92608653 7.21304385c0.79565185 3.28695644 1.66956503 7.96956504 2.64782636 14.06086963 3.28695644-3.40434756 6.48260859-6.05217393 9.58695645-7.94347822 3.10434786-1.8913043 5.56956563-2.76521748 7.39565245-2.64782638-1.82608682-6.69130401-3.56086934-11.98695674-5.20434756-15.88695644-1.64347822-3.89999971-3.95217422-6.84782578-6.93913008-8.85652207-2.98695674-2.00869541-7.00434756-3.28695644-12.05217421-3.83478222-5.04782578-0.54782578-11.96086992-0.82173955-20.72608682-0.82173956-6.09130459 0-10.98260859 0.18260859-14.69999971 0.54782578-3.71739112 0.36521719-6.59999971 1.18695674-8.67391347 2.46521778-2.07391289 1.27826104-3.46956503 3.10434786-4.2000003 5.47826045-0.73043437 2.37391347-1.09565244 5.56956563-1.09565244 9.58695644l0 62.45217422L417.04347852 66.58695674c-2.43913008-11.20434785-5.26956503-20.93478223-8.49130401-29.2173917-3.22173896-8.28260859-7.27826045-15.70434786-12.14347852-22.27826074s-10.74782637-12.6-17.62173896-18.07826045-15.06521777-11.02173926-24.56086992-16.6173917c-1.57826074 2.19130401-3.65217364 4.5913043-6.2086957 7.21304384-2.55652207 2.62173955-5.17826074 4.90434786-7.85217393 6.84782578 8.88260888 3.40434756 16.70869599 7.39565244 23.46521748 11.96086993s12.62608682 9.79565185 17.62173897 15.70434785c4.99565214 5.90869599 9.13043496 12.5086957 12.4173914 19.81304385 3.28695644 7.30434815 5.84347852 15.52173926 7.66956534 24.65217422-11.56956504-0.11739112-22.00434785-0.27391289-31.31739141-0.45652148-9.31304356-0.18260859-17.32173926-0.45652148-24.01304327-0.82173956l0 16.25217363c6.93913008-0.36521719 15.24782637-0.63913008 24.92608711-0.82173954 9.67826075-0.18260859 20.54347822-0.33913037 32.59565245-0.45652149 0.4826083 4.86521719 0.91304385 10.59130459 1.27826103 17.16521748s0.61304326 13.39565185 0.73043438 20.45217393c-9.13043496-0.11739112-17.34782607-0.27391289-24.65217422-0.45652148s-13.57826045-0.45652148-18.8086957-0.82173956l0 16.43478222c6.45652177-0.4826083 14.4913043-0.82173955 24.10434755-1.00434813s20.38695644-0.27391289 32.32173956-0.27391289c5.84347852 0 11.77826045 0.02608682 17.80434755 0.09130429 6.02608711 0.06521748 11.75217363 0.15652178 17.16521748 0.27391289 5.41304385 0.11739112 10.43478281 0.24782607 15.06521778 0.36521719 4.63043496 0.11739112 8.5173917 0.29999971 11.68695615 0.54782578l0-16.43478223c-2.92173926 0.24782607-6.54782607 0.45652148-10.86521748 0.63913008-4.31739141 0.18260859-9.03913067 0.29999971-14.15217393 0.36521719s-10.47391347 0.11739112-16.06956503 0.18260859c-5.59565244 0.06521748-11.20434785 0.0913043-16.8000003 0.0913043 0-6.2086957-0.24782607-12.57391318-0.73043438-19.0826086C421.12608682 92.30869570000004 420.44782607 86.12608681999995 419.59999971 80.28260829999999L419.59999971 80.28260829999999zM598.92173896 64.76086992c-2.43913008 2.80434815-5.02173896 5.66086992-7.76086963 8.5826083-2.73913066 2.92173926-5.68695674 5.77826104-8.85652206 8.58260831l9.31304355 7.12173954c3.40434756-2.92173926 6.3913043-5.63478222 8.94782637-8.12608681 2.55652207-2.49130459 4.99565214-4.90434786 7.30434814-7.21304385L598.92173896 64.76086992zM539.75652207 112.60434785999996c-0.11739112 2.80434815-0.36521719 5.72608653-0.73043438 8.76521776-0.36521719 3.03913037-0.97826045 6.32608682-1.82608681 9.86086934l14.42608681 1.82608681c0.84782636-3.16956533 1.55217393-6.3 2.09999971-9.40434784 0.54782578-3.10434786 1.00434815-6.05217393 1.36956533-8.85652208L539.75652207 112.60434785999996zM608.59999971 128.12608710999996c-1.21304355-0.4826083-2.58260888-1.98260859-4.108696-4.47391318-1.52608711-2.49130459-3.67826045-6.48260859-6.4826086-11.96086992-1.34347852 0.36521719-3.07826104 0.70434756-5.20434755 1.00434813-2.12608653 0.29999971-4.72173926 0.57391347-7.76086964 0.82173956 2.07391289 3.16956533 3.71739112 6.3 4.93043468 9.40434785 1.21304355 3.10434786 2.43913008 6.96521778 3.65217363 11.59565186 2.55652207-0.84782636 5.23043437-1.61739141 8.03478252-2.28260831s5.11304326-1.12173925 6.93913008-1.36956532c1.34347852-0.24782607 2.03478223-0.61304326 2.09999971-1.09565245C610.76521778 129.28695615000004 610.06086933 128.73913037 608.59999971 128.12608710999996L608.59999971 128.12608710999996zM644.02608711 32.98695614999997c3.53478252 8.03478252 6.41739112 17.43913037 8.67391348 28.21304356 2.25652148 10.77391318 3.74347793 23.64782607 4.47391318 38.62173954l-20.99999971 0c-1.21304355-3.89999971-2.73913066-7.85217393-4.56521748-11.86956562-1.82608682-4.0173917-3.83478223-7.96956504-6.0260871-11.86956563l11.50434755 0.36521719c0-9.13043496 0.54782578-17.32173926 1.64347823-24.56086992S641.58695615 38.34782637000001 644.02608711 32.98695614999997L644.02608711 32.98695614999997zM644.3913043 7.786956150000037c-4.26521778-4.74782607-9.74347823-9.37826104-16.43478223-13.87826103-6.69130401-4.5-14.97391347-8.88260888-24.83478281-13.14782578-1.09565244 1.94347792-2.58260888 4.0173917-4.47391319 6.2086957-1.8913043 2.19130401-4.10869599 4.31739141-6.66521719 6.3913043 3.89999971 0.84782636 7.94347822 2.09999971 12.14347852 3.74347793 4.20000029 1.64347822 8.28260859 3.58695615 12.23478281 5.84347851 3.95217422 2.25652148 7.66956533 4.77391289 11.13913038 7.57826104 3.46956503 2.80434815 6.48260859 5.77826104 9.03913066 8.94782636-1.94347792 3.53478252-3.58695615 7.21304385-4.93043467 11.04782608-1.34347852 3.83478223-2.46521778 8.0086957-3.37826074 12.50869571-0.91304385 4.5-1.64347822 9.37826104-2.191304 14.6086954-0.54782578 5.23043437-0.88695615 11.02173926-1.00434815 17.34782608-4.13478281-7.18695615-8.33478222-13.44782636-12.6-18.8086957-2.92173926 4.63043496-5.90869599 7.91739141-8.94782637 9.86086933 3.65217364 4.99565214 7.03043438 10.50000029 10.13478223 16.52608653 3.10434786 6.02608711 5.8173917 12.32608711 8.12608682 18.9 2.30869599 6.57391289 4.20000029 13.26521777 5.66086992 20.08695673 1.46086963 6.82173896 2.43913008 13.51304385 2.92173926 20.08695674 2.80434815-0.97826045 6.02608711-1.8 9.67826074-2.46521777 3.65217364-0.66521778 6.63913037-1.12173925 8.94782637-1.36956533 1.34347852-0.11739112 2.09999971-0.57391347 2.2826083-1.36956534 0.18260859-0.79565185-0.75652208-1.66956503-2.83043497-2.64782636-0.24782607-0.11739112-0.57391347-0.45652148-1.00434813-1.00434815-0.43043467-0.54782578-0.93913066-1.57826074-1.55217393-3.10434785-0.61304326-1.52608711-1.39565215-3.67826045-2.37391348-6.4826086-0.97826045-2.80434815-2.19130401-6.57391289-3.65217363-11.32173896l20.99999971 0c5.36086934 0 9.86086933 0.11739112 13.51304384 0.36521719 3.65217364 0.24782607 6.63913037 0.61304326 8.94782637 1.09565244l0-14.79130401c-2.92173926 0.36521719-7.12173955 0.73043437-12.6 1.09565245-0.61304326-9.97826045-1.46086963-18.9913043-2.55652207-27.02608682-1.09565244-8.03478252-2.37391347-15.31304385-3.83478223-21.82173925-1.46086963-6.50869541-3.16956533-12.30000029-5.11304326-17.34782609-1.94347792-5.04782578-4.0826083-9.65217393-6.39130429-13.78695673 3.40434756-3.89999971 7.69565214-7.27826045 12.87391289-10.13478223 5.17826074-2.85652178 12.07826104-5.63478222 20.72608681-8.30869541-2.92173926-2.80434815-5.11304326-5.63478222-6.57391289-8.491304-1.46086963-2.85652178-2.67391318-5.86956533-3.65217363-9.03913067-4.38260888 2.67391318-8.21739112 5.08695645-11.50434756 7.21304385-3.28695644 2.12608653-6.18260888 4.13478281-8.67391348 6.02608711-2.49130459 1.8913043-4.65652177 3.71739112-6.48260859 5.47826045S645.96956504 5.960869330000037 644.3913043 7.786956150000037L644.3913043 7.786956150000037zM594.72173955 15.639130079999973c2.80434815-0.97826045 5.47826045-1.98260859 8.03478252-3.01304355 2.55652207-1.03043497 5.11304326-2.2173917 7.66956533-3.56086934-1.94347792-2.07391289-3.49565185-3.89999971-4.65652177-5.47826045-1.16086992-1.57826074-2.2826083-3.53478252-3.37826075-5.84347851-2.43913008 1.34347852-4.86521719 2.64782636-7.30434814 3.92608651s-5.04782578 2.46521778-7.85217393 3.56086934c-2.67391318-2.80434815-5.66086992-5.26956503-8.94782637-7.39565244-3.28695644-2.12608653-7.05652207-4.0826083-11.32173896-5.84347851-4.26521778-1.76086933-9.10434815-3.40434756-14.51739112-4.93043467-5.41304385-1.52608711-11.47826075-3.07826104-18.16956562-4.65652178-1.21304355 2.43913008-2.98695674 5.04782578-5.29565186 7.85217392s-4.68260859 5.11304326-7.12173955 6.93913008c11.20434785 0.24782607 21.15652148 1.30434786 29.85652179 3.19565215 8.70000029 1.8913043 15.97826075 5.08695645 21.82173925 9.58695645-4.63043496 1.34347852-9.58695645 2.53043438-14.8826083 3.56086934s-11.04782607 1.98260859-17.25652178 2.83043495c2.19130401 3.89999971 4.13478281 7.57826104 5.84347852 11.04782607s3.35217393 7.14782637 4.93043466 11.04782609c-5.72608653-0.11739112-10.56521778-0.27391289-14.5173911-0.45652149-3.95217422-0.18260859-7.46086992-0.52173896-10.5000003-1.00434815l0 13.14782579c3.16956533-0.24782607 7.23913067-0.45652148 12.23478281-0.63913008 4.99565214-0.18260859 10.47391347-0.33913037 16.43478223-0.45652149 0.73043437 2.30869599 1.46086963 4.72173926 2.19130401 7.21304385 0.73043437 2.49130459 1.52608711 5.13913008 2.37391347 7.94347822 2.80434815-1.09565244 5.26956503-1.8913043 7.39565244-2.37391347s4.5913043-0.84782636 7.39565245-1.09565245c2.43913008-0.24782607 3.67826045-0.61304326 3.74347792-1.09565244s-0.82173955-1.34347852-2.64782636-2.55652207c-1.21304355-0.84782636-2.25652148-1.85217364-3.10434786-3.01304356-0.84782636-1.16086992-1.8913043-2.83043497-3.10434785-5.02173896l24.65217422 0c4.99565214 0 9.19565244 0.43043467 12.6 1.27826104-2.07391289-7.55217422-4.0826083-14.15217393-6.02608711-19.81304385S597.16086963 19.904347850000022 594.72173955 15.639130079999973L594.72173955 15.639130079999973zM558.3826083 23.856522069999983c4.63043496-0.73043437 8.92173955-1.46086963 12.87391289-2.191304 3.95217422-0.73043437 7.69565214-1.52608711 11.23043467-2.37391348 3.65217364 5.36086934 6.09130459 11.75217363 7.30434815 19.17391289l-24.65217422 0L558.3826083 23.856522069999983zM556.1913043 94.70869599000002c-5.59565244-0.11739112-10.65652207-0.27391289-15.15652208-0.45652148s-8.5826083-0.39130401-12.2347828-0.63913008l-1e-8 12.96521719c4.63043496-0.36521719 9.86086933-0.66521778 15.70434786-0.91304385s12.6-0.36521719 20.26956533-0.36521719l0 17.16521749c0 3.40434756-0.15652178 6.63913037-0.45652148 9.67826074-0.29999971 3.03913037-0.75652208 6.14347822-1.36956534 9.31304356 2.80434815-0.24782607 5.54347793-0.43043467 8.21739112-0.54782579s5.41304385-0.18260859 8.21739111-0.18260859c1.7086957 0 2.64782636-0.39130401 2.83043496-1.18695674 0.18260859-0.79565185-0.33913037-1.43478281-1.55217393-1.91739112-1.09565244-0.4826083-1.8-1.06956563-2.0999997-1.73478252-0.29999971-0.66521778-0.45652148-1.85217364-0.45652148-3.56086933l0-27.02608682c6.82173896 0.11739112 13.26521777 0.29999971 19.35652148 0.54782578 6.09130459 0.24782607 10.95652178 0.4826083 14.6086954 0.73043438l0-12.96521719c-3.40434756 0.24782607-8.1913043 0.4826083-14.33478251 0.73043438-6.14347822 0.24782607-12.6913043 0.43043467-19.63043437 0.54782578 0-5.59565244 0.0913043-10.65652207 0.27391289-15.15652207 0.18260859-4.5 0.52173896-9.13043496 1.00434813-13.87826104l-15.88695644 0c0.36521719 4.38260888 0.66521778 8.64782578 0.91304385 12.7826086 0.24782607 4.13478281 0.36521719 8.83043437 0.36521719 14.06086963-2.19130401-4.38260888-4.31739141-8.1913043-6.3913043-11.41304327-2.07391289-3.22173896-4.29130459-6.2086957-6.66521718-8.94782636-2.37391347-2.73913066-5.02173896-5.36086934-7.94347823-7.85217393-2.92173926-2.49130459-6.32608682-5.13913008-10.22608653-7.94347823-1.34347852 2.07391289-3.07826104 3.99130401-5.20434755 5.75217422s-4.90434786 3.49565185-8.30869541 5.20434757c7.30434815 2.30869599 14.15217393 6.00000029 20.54347822 11.04782607C546.96956503 83.59565243999998 552.17391348 88.98260859000004 556.1913043 94.70869599000002L556.1913043 94.70869599000002zM780.80000029 100.00434786000005l63-1e-8 0 18.99130429-63 0L780.80000029 100.00434786000005zM729.48695645 86.67391348000001c-4.99565214 0-9.24782607-0.11739112-12.78260859-0.3652172-3.53478252-0.24782607-6.69130401-0.66521778-9.49565216-1.27826102l0 15.52173925c2.80434815-0.61304326 5.96086963-1.00434815 9.49565216-1.18695674s7.78695645-0.27391289 12.78260859-0.27391289c0 7.30434815-0.02608682 13.17391347-0.0913043 17.62173897s-0.15652178 8.06086933-0.27391289 10.86521748-0.33913037 5.08695645-0.63913008 6.84782578-0.70434756 3.62608682-1.18695674 5.56956562c3.28695644-0.61304326 6.11739141-1.00434815 8.49130401-1.18695674 2.37391347-0.18260859 4.83913037-0.20869541 7.39565243-0.09130429 5.84347852 0.24782607 6.75652148-1.27826104 2.73913067-4.56521748-1.34347852-0.97826045-2.2173917-1.91739112-2.64782637-2.83043497-0.43043467-0.91304385-0.63913008-2.16521719-0.63913008-3.74347792l0-28.30434786c3.03913037 0.11739112 5.75217422 0.27391289 8.12608682 0.45652149 2.37391347 0.18260859 4.5913043 0.45652148 6.66521719 0.82173955l0-15.52173925c-2.07391289 0.36521719-4.29130459 0.66521778-6.66521719 0.91304384-2.37391347 0.24782607-5.08695645 0.43043467-8.12608682 0.54782578l0-25.2c5.36086934 2.30869599 10.59130459 4.86521719 15.70434786 7.66956533-0.11739112-2.80434815 0-5.47826045 0.36521719-8.03478252s0.91304385-4.81304356 1.64347822-6.75652148c-2.80434815-0.84782636-5.68695674-1.76086933-8.67391348-2.73913066-2.98695674-0.97826045-6.00000029-2.07391289-9.03913066-3.28695645l0-48.75652178c0-3.76956563-0.20869541-6.82173896-0.63913008-9.13043495-0.43043467-2.30869599-1.52608711-4.20000029-3.28695645-5.66086993-1.76086933-1.46086963-4.47391318-2.71304385-8.12608682-3.74347793s-8.70000029-2.09999971-15.15652206-3.19565214c-0.24782607 3.28695644-0.88695615 6.36521748-1.91739112 9.22173925-1.03043497 2.85652178-2.94782607 6.11739141-5.75217422 9.76956504 8.03478252-1.34347852 13.66956563-1.52608711 16.89130459-0.54782578 3.22173896 0.97826045 4.83913037 2.85652178 4.83913038 5.66086992l0 40.72173926c-8.28260859-4.0173917-15.40434815-8.33478222-21.36521778-12.96521719-0.24782607 2.80434815-0.61304326 5.90869599-1.09565244 9.31304356s-1.21304355 6.75652148-2.191304 10.04347792c8.88260888 2.30869599 17.1 4.74782607 24.65217422 7.30434815L729.48695645 86.67391348000001zM842.52173925 26.778260449999948l-41.45217363 0 0-26.84347822 41.45217364 0L842.52173925 26.778260449999948zM826.45217422 37.55217363999998c4.74782607 0 8.79130459 0.02608682 12.14347851 0.09130429s6.2086957 0.11739112 8.58260831 0.18260859c2.37391347 0.06521748 4.38260888 0.18260859 6.02608711 0.36521719s3.13043467 0.39130401 4.47391318 0.63913007c-0.4826083-2.07391289-0.79565185-4.31739141-0.91304385-6.75652148-0.11739112-2.43913008-0.18260859-5.29565185-0.1826086-8.58260829l0-24.83478282c0-3.28695644 0.0913043-6.36521748 0.2739129-9.22173926s0.52173896-5.86956533 1.00434814-9.03913066L842.52173925-19.60434785999996l1e-8 7.48695674-41.45217364 0 0-9.49565214-15.33913065 0c0.61304326 3.16956533 0.97826045 6.2086957 1.09565243 9.13043496 0.11739112 2.92173926 0.18260859 6.02608711 0.18260859 9.31304356l0 26.66086963c0 2.92173926-0.0913043 5.68695674-0.27391289 8.3086954-0.18260859 2.62173955-0.45652148 4.95652148-0.82173954 7.03043438 1.46086963-0.24782607 2.94782607-0.43043467 4.47391318-0.54782579 1.52608711-0.11739112 3.31304326-0.20869541 5.38695615-0.27391289s4.5-0.15652178 7.30434815-0.27391289c2.80434815-0.11739112 6.2086957-0.18260859 10.22608652-0.18260859l0 19.72173955c-6.69130401-0.11739112-12.44347822-0.29999971-17.25652178-0.54782578-4.81304356-0.24782607-9.22173926-0.66521778-13.23913008-1.27826104l0 14.79130401c4.13478281-0.4826083 8.5826083-0.84782636 13.33043438-1.09565244 4.74782607-0.24782607 10.47391347-0.43043467 17.16521748-0.54782578l0 19.72173955-32.50434814 0c0-9.24782607-0.11739112-17.55652148-0.36521719-24.92608711-0.24782607-7.36956562-0.70434756-14.12608711-1.36956533-20.26956534-0.66521778-6.14347822-1.52608711-11.84347793-2.55652208-17.07391318s-2.37391347-10.29130401-4.0173917-15.15652207c-1.64347822-4.86521719-3.58695615-9.76956504-5.84347851-14.6999997-2.25652148-4.93043467-4.90434786-10.13478222-7.94347823-15.61304356-1.82608682 1.46086963-3.95217422 2.67391318-6.39130429 3.65217364-2.43913008 0.97826045-5.17826074 1.57826074-8.21739111 1.82608681 3.53478252 5.23043437 6.59999971 10.43478281 9.22173925 15.61304356 2.62173955 5.17826074 4.83913037 10.61739141 6.66521719 16.34347792 1.82608682 5.72608653 3.26086963 11.84347793 4.29130459 18.35217422s1.73478252 13.66956563 2.09999971 21.45652207c0.24782607 4.13478281 0.39130401 9.03913067 0.45652148 14.69999971 0.06521748 5.66086992 0.06521748 11.77826045 0 18.35217422-0.06521748 6.57391289-0.18260859 13.39565185-0.36521718 20.45217392s-0.45652148 13.99565214-0.82173956 20.81739112c1.57826074-0.36521719 3.37826075-0.66521778 5.38695616-0.91304385 2.00869541-0.24782607 4.65652177-0.45652148 7.94347822-0.63913008 3.28695644-0.18260859 7.42173926-0.29999971 12.4173914-0.36521719 4.99565214-0.06521748 11.25652148-0.0913043 18.80869571-0.0913043 7.30434815 0 13.63043497 0.06521748 18.99130429 0.1826086 5.36086934 0.11739112 9.92608682 0.27391289 13.69565245 0.45652148s6.91304326 0.39130401 9.40434785 0.63913008c2.49130459 0.24782607 4.47391318 0.4826083 5.93478282 0.73043438-0.36521719-3.03913037-0.66521778-6.57391289-0.91304385-10.59130459-0.24782607-4.0173917-0.36521719-8.15217363-0.36521719-12.41739141s0.0913043-8.03478252 0.27391289-11.32173896c0.18260859-3.28695644 0.52173896-7.05652207 1.00434815-11.32173896-3.16956533 0.61304326-7.42173926 1.06956563-12.7826086 1.36956532-5.36086934 0.29999971-11.68695615 0.45652148-18.99130429 0.45652149l0-19.72173955c17.41304355 0 30.86086992 0.54782578 40.35652206 1.64347822l0-14.791304c-4.74782607 0.61304326-10.43478281 1.06956563-17.07391318 1.36956533-6.63913037 0.29999971-14.4 0.45652148-23.28260889 0.45652148L826.45217422 37.55217363999998z"  horiz-adv-x="1024" />

    
    <glyph glyph-name="yonghuming" unicode="&#58908;" d="M624.13775353 331.28690947999996c44.51295674 52.31554102 91.44538945 122.98671826 91.44538944 198.71271122 0 136.83889161-91.06223115 248.0628208-203.0623708 248.06282081-111.8922082 0-203.17390049-111.22392921-203.17390049-248.06282081 0-75.72599297 28.68832617-126.5017043 86.00561631-197.39414179 94.52414971-139.52729795-214.54813477-149.74755908-261.26020635-249.27075967-13.84767597-29.5634751-16.26805107-52.48193643-16.05038818-78.91178555 0-3.40885283-0.32559521-6.92383799 1.37703252-9.72557314 1.70262773-2.75136681 4.34066573-4.45309453 7.20086308-4.45309453l770.70195791 0c2.74866855 0 5.44067227 1.70262773 7.08843428 4.45309453 1.70262773 2.80173516 1.37433428 6.26275459 1.37433427 9.72557314 0.55225195 29.56437422-3.40705372 56.05358643-11.15657138 72.26497266C845.00530684 180.71277069999996 488.17400996 172.91108642999995 624.13775353 331.28690947999996z"  horiz-adv-x="1025" />

    
    <glyph glyph-name="weixin" unicode="&#59365;" d="M1024 259.968c0 141.888-141.866667 257.429333-301.461333 257.429333-169.088 0-301.866667-115.541333-301.866667-257.429333 0-142.250667 132.778667-257.386667 301.866667-257.386667 35.370667 0 71.146667 9.024 106.496 17.642667l97.450667-53.418667-26.666667 88.789333C970.922667 109.034667 1024 180.16 1024 259.968zM624.618667 304.384c-17.642667 0-35.328 17.664-35.328 35.392 0 17.621333 17.685333 35.328 35.328 35.328 26.752 0 44.458667-17.706667 44.458667-35.328C669.077333 322.048 651.370667 304.384 624.618667 304.384zM820.010667 304.384c-17.664 0-35.306667 17.664-35.306667 35.392 0 17.621333 17.642667 35.328 35.306667 35.328 26.709333 0 44.416-17.706667 44.416-35.328C864.426667 322.048 846.293333 304.384 820.010667 304.384zM693.248 548.757333c11.626667 0 23.296-0.810667 34.901333-2.005333-31.274667 146.133333-187.392 254.464-365.674667 254.464C163.370667 801.216 0 665.557333 0 492.970667c0-99.562667 54.208-181.418667 144.917333-244.864L108.8 138.965333l126.826667 63.786667c45.354667-8.810667 81.877333-18.069333 126.848-18.069333 11.221333 0 22.506667 0.405333 33.749333 1.557333-7.232 24.128-11.242667 49.749333-11.242667 75.882667C384.96 420.309333 521.066667 548.757333 693.248 548.757333zM498.133333 647.104c27.285333 0 45.333333-18.069333 45.333333-45.376 0-27.264-18.069333-45.333333-45.333333-45.333333-27.306667 0-54.570667 18.069333-54.570667 45.333333C443.968 629.056 471.210667 647.104 498.133333 647.104zM244.458667 556.437333c-27.306667 0-54.570667 18.048-54.570667 45.333333 0 27.306667 27.285333 45.354667 54.570667 45.354667 27.328 0 45.397333-18.069333 45.397333-45.354667C289.834667 574.869333 271.786667 556.437333 244.458667 556.437333z"  horiz-adv-x="1024" />

    
    <glyph glyph-name="home" unicode="&#60354;" d="M425.984 41.98400000000004l-212.010667 0 0 342.016-128 0 425.984 384 425.984-384-128 0 0-342.016-212.010667 0 0 256-171.989333 0 0-256z"  horiz-adv-x="1024" />

    
    <glyph glyph-name="dianhua" unicode="&#58907;" d="M729.792 281.6c-61.856-68.256-61.856-136.544-123.744-136.544s-123.744 68.256-185.6 136.544c-61.856 68.256-123.744 136.544-123.744 204.8 0 68.256 61.856 68.256 123.744 136.544C482.304 691.2 296.704 896 234.848 896s-185.6-204.8-185.6-204.8c0-136.544 127.104-413.312 247.456-546.144C417.056 12.256 667.904-128 791.648-128c0 0 185.6 136.544 185.6 204.8C977.248 145.056 791.648 349.856 729.792 281.6z"  horiz-adv-x="1024" />

    
    <glyph glyph-name="zuobiaofill" unicode="&#59240;" d="M511.92440791 777.75944912C341.38854336 777.75944912 202.60137763 638.97228252 202.60137763 468.43641885c0-164.63967714 277.27196396-457.03006875 289.06433702-469.4271794 5.29144981-5.59381817 12.69947901-8.76868769 20.40987744-8.76868769 0.15118418 0 0.45355254 0 0.60473672 0 7.86158261 0 15.42079599 3.62842295 20.56106162 9.67579365l96.00201563 109.91096894c127.5995294 156.17335781 192.15521543 276.81841055 192.15521542 358.45792032C821.39862237 638.97228252 682.61145664 777.75944912 511.92440791 777.75944912zM511.92440791 327.83504121c-77.70871846 0-140.60137763 62.89265917-140.60137764 140.60137764s62.89265917 140.60137763 140.60137764 140.60137763 140.60137763-62.89265917 140.60137764-140.60137763S589.63312636 327.83504121 511.92440791 327.83504121z"  horiz-adv-x="1024" />

    
    <glyph glyph-name="geren2" unicode="&#58897;" d="M936.896 110.208c9.28 14.336 17.664 29.056 25.472 44.224 1.856 3.648 3.52 7.36 5.312 11.072 5.952 12.288 11.392 24.832 16.32 37.632 1.984 5.184 3.904 10.368 5.76 15.616 4.096 11.904 7.68 23.936 10.944 36.16 1.536 5.888 3.2 11.712 4.544 17.6 2.816 12.608 4.992 25.472 6.848 38.464 0.832 5.568 1.92 11.008 2.56 16.64 2.048 18.56 3.328 37.312 3.328 56.32 0 278.976-227.008 505.984-505.984 505.984S6.016 662.976 6.016 384c0-19.072 1.28-37.824 3.328-56.32 0.64-5.632 1.728-11.072 2.56-16.704 1.92-12.928 4.032-25.728 6.848-38.336 1.344-6.016 3.008-11.84 4.544-17.664 3.264-12.224 6.848-24.32 10.944-36.16 1.792-5.248 3.712-10.432 5.696-15.616 4.928-12.8 10.432-25.344 16.32-37.632 1.792-3.712 3.456-7.424 5.312-11.072 7.744-15.168 16.192-29.888 25.408-44.096 0.32-0.576 0.64-1.152 1.024-1.664C178.432-30.016 334.592-121.984 512-121.984s333.632 92.032 423.936 230.656C936.256 109.184 936.576 109.696 936.896 110.208zM512 647.552c102.592 0 185.984-83.456 185.984-185.984 0-102.656-83.456-186.176-185.984-186.176S326.016 358.912 326.016 461.568C326.016 564.096 409.408 647.552 512 647.552zM204.416 67.2C257.216 187.904 377.152 268.736 512 268.736s254.784-80.896 307.648-201.472C739.968-10.112 631.552-57.984 512-57.984 392.448-57.984 284.032-10.112 204.416 67.2z"  horiz-adv-x="1024" />

    
    <glyph glyph-name="tuozhan" unicode="&#58933;" d="M172.03254201 13.59644400000002L337.977431 13.59644400000002 337.977431 473.486222 172.032542 355.84000000000003ZM679.253875 523.264L679.25387501 13.59644400000002 852.366764 13.59644400000002 852.366764 355.84000000000003ZM397.255653 754.403556L622.364986 640.625778 622.36498601 13.59644400000002 397.255653 13.59644400000002ZM172.03254201 13.59644400000002L337.977431 13.59644400000002 337.977431 473.486222 172.032542 355.84000000000003ZM679.253875 523.264L679.25387501 13.59644400000002 852.366764 13.59644400000002 852.366764 355.84000000000003ZM397.255653 754.403556L622.364986 640.625778 622.36498601 13.59644400000002 397.255653 13.59644400000002Z"  horiz-adv-x="1024" />

    
    <glyph glyph-name="duigou1" unicode="&#58972;" d="M512 896C230.4 896 0 665.6 0 384s230.4-512 512-512 512 230.4 512 512S793.6 896 512 896zM844.8 531.2l-428.8-428.8L179.2 339.2c-25.6 25.6-25.6 64 0 89.6s64 25.6 89.6 0l147.2-147.2 339.2 339.2c25.6 25.6 64 25.6 89.6 0S870.4 556.8 844.8 531.2z"  horiz-adv-x="1024" />

    
    <glyph glyph-name="duigou" unicode="&#58944;" d="M384.119471 74.883757c-11.918447 0-23.837918 4.527107-32.936133 13.573133L77.629032 360.667595c-18.196431 18.107403-18.196431 47.456848 0 65.557088 18.196431 18.107403 47.674812 18.10024 65.871243 0.007163l240.619196-239.436254 495.173776 492.739331c18.196431 18.107403 47.674812 18.107403 65.871243 0 18.196431-18.10024 18.196431-47.449685 0-65.557088L417.055604 88.464053C407.956366 79.410863 396.037918 74.883757 384.119471 74.883757z"  horiz-adv-x="1024" />

    
    <glyph glyph-name="icon_wrong" unicode="&#58921;" d="M834.976 7.264c-35.264-13.824-75.328-5.664-102.368 20.864l-220.32 220.064-220.224-220.064c-37.536-37.504-98.368-37.504-135.904 0-37.536 37.472-37.536 98.304 0 135.776l220.288 220.096-220.288 220.064c-37.536 37.504-37.536 98.304 0 135.808 37.536 37.504 98.368 37.504 135.904 0l220.224-220.16 220.32 220.16c37.696 36.352 97.632 35.84 134.688-1.216 37.056-37.056 37.568-96.928 1.12-134.592l-220.224-220.064 220.224-220.096c18.88-18.976 28.864-45.056 27.456-71.808-1.792-37.792-25.632-71.008-60.896-84.832z"  horiz-adv-x="1024" />

    
    <glyph glyph-name="gongzuoliu" unicode="&#58931;" d="M931.98125001 349.61249999999995c0 132.375-66.84375001 249.09375001-168.56250002 318.46875001 1.96875001 8.25 3.28125001 16.78125001 3.28125001 25.59374999 0 60.75-49.3125 110.0625-110.15625001 110.0625-46.40625001 0-85.875-28.6875-102.09374999-69.1875-2.71875001 0.09375001-5.34375001 0.375-8.0625 0.375-211.03125001 0-382.125-169.5-385.3125-379.6875-40.5-16.21875001-69.09375001-55.6875-69.09375001-102 0-60.75 49.3125-110.0625 110.15625001-110.0625 6.09375001 0 12.09375001 0.84375001 17.90625001 1.78125001 68.25-108.46875001 188.71875001-180.75 326.24999998-180.75000002 51.84375001 0 101.25 10.40625001 146.43750002 28.96875001 19.59375001-17.8125 45.375-28.96875001 73.87499998-28.96874999 60.84375001 0 110.15625001 49.3125 110.15625001 110.15624999 0 19.875-5.625 38.25-14.90625001 54.28125001C906.0125 191.26874998999995 931.98125001 267.29999999999995 931.98125001 349.61249999999995zM822.66875001 168.67499999999995c-16.40625001 9.75-35.4375 15.75-55.96875001 15.75-60.84375001 0-110.15625001-49.3125-110.15625001-110.15625001 0-11.8125 2.34375001-23.0625 5.81250002-33.74999998-36.09375001-13.59375001-75.09375001-21.28125001-115.96875001-21.28125001-115.21875001 0-216.46875001 59.0625-275.625 148.40625001 25.125 20.15625001 41.625 50.8125 41.625 85.59374999 0 55.875-41.8125 101.53125001-95.71875001 108.65625001 6.46875001 176.71875001 151.5 318 329.81250002 317.99999998 0.46875001 0 0.9375-0.09375001 1.40624999-0.09374999 6.84375001-54.1875 52.6875-96.28125001 108.75-96.28125001 31.875 0 60.375 13.78125001 80.53125001 35.43750002 84.46875001-59.8125 139.78125001-158.0625 139.78124999-269.43750002C876.85625001 282.76874998999995 856.79375001 220.61249999999995 822.66875001 168.67499999999995z"  horiz-adv-x="1024" />

    
    <glyph glyph-name="success1" unicode="&#58919;" d="M337.76 488.16 272.8 423.2 481.6 214.4 945.6 678.4 880.64 743.36 481.6 344.32 337.76 488.16 337.76 488.16ZM899.2 400C899.2 195.84 732.16 28.8 528 28.8 323.84 28.8 156.8 195.84 156.8 400 156.8 604.16 323.84 771.2 528 771.2 565.12 771.2 597.6 766.56 630.08 757.28L704.32 831.52C648.64 850.08 588.32 864 528 864 272.8 864 64 655.2 64 400 64 144.8 272.8-64 528-64 783.2-64 992 144.8 992 400L899.2 400 899.2 400Z"  horiz-adv-x="1024" />

    
    <glyph glyph-name="wenhao" unicode="&#59165;" d="M511.57279003 777.84297422c-100.66245117 0-201.32400234-38.24027315-278.36756718-115.28383799-153.52411026-153.52411026-153.52411026-403.21102325 1e-8-556.7351335 77.04356484-77.04356484 177.70511602-115.28383799 278.36756718-115.28383799s201.32490146 38.24027315 278.36756719 115.28383799c153.52411026 153.52411026 153.52411026 403.21102325-1e-8 556.7351335C712.89769151 739.60270107 612.23524033 777.84297422 511.57279003 777.84297422zM511.57279003 738.47756396c46.11353467 0 91.1019331-8.99749951 133.27883702-25.86826142 43.86416045-17.99589903 83.2286707-43.86416045 116.97019453-78.16780195 34.30364239-33.74152295 60.17280293-73.1069332 78.16780196-116.97019453 16.87076191-42.17690391 25.86826143-87.16530234 25.86826142-133.27883702s-8.99749951-91.1019331-25.86826142-133.27883701c-17.99499902-43.86416045-43.86416045-83.2286707-78.16780196-116.97019453-33.74152295-34.30364239-73.1069332-60.17280293-116.97019453-78.16780195-42.17690391-16.87076191-87.16530234-25.86826143-133.27883702-25.86826143-46.11353467 0-91.1019331 8.99749951-133.278837 25.86826143-43.86416045 17.99589903-83.2286707 43.86416045-116.97019454 78.16780195-34.30364239 33.74152295-60.17280293 73.1069332-78.16780195 116.97019453-16.87076191 42.17690391-25.86826143 87.16530234-25.86826142 133.27883701s8.99749951 91.1019331 25.86826142 133.27883702c17.99589903 43.86416045 43.86416045 83.2286707 78.16780195 116.97019453 33.74152295 34.30364239 73.1069332 60.17280293 116.97019454 78.16780195C420.47085693 729.48006445 465.4592545 738.47756396 511.57279003 738.47756396zM511.57279003 241.35311484c-16.30864248 0-30.36701074-13.49624971-30.36701073-30.36701073 0-16.30864248 14.05926738-29.80489219 30.36701073-29.80489219 16.87076191 0 30.36701074 13.49624971 30.36701075 29.80489219C541.9406999 227.85596601999998 528.44355107 241.35311484 511.57279003 241.35311484zM512.13580771 587.20372793c-37.11603516 0-66.92092734-9.56051807-89.41467656-29.80489219-22.49464834-19.68225557-36.55301748-48.36290977-41.0517668-86.04106436l51.17440343-6.18600586c3.93663076 28.11763652 13.49624971 48.9250292 27.55551709 61.85915948 14.05926738 13.49624971 31.49214873 19.68225557 52.29954052 19.68225557 21.93163066 0 40.48964824-7.31024385 55.67315362-21.93163067 14.62138682-14.05926738 21.93163066-30.9300293 21.93163066-50.61228487 0-10.12263662-2.2493751-20.24527412-7.31024384-29.24277362-5.06086875-8.99749951-16.30864248-20.80739268-33.1794044-35.99089805-17.43288047-15.18350537-29.24277363-26.43127998-35.99089805-34.30364239-8.43538096-10.68475606-15.18350537-21.36951123-19.12013614-32.05426728-5.6238873-14.05926738-8.43538096-30.9300293-8.43538095-50.05016631l0.56211855-15.18350537 47.23777266 0c0.56211855 19.68225557 1.68725566 34.30364239 3.93663076 42.73902334 2.81149365 8.99749951 6.18600586 16.87076191 11.24687461 23.61888632 5.06086875 6.74812442 15.18350537 17.43288047 31.49214874 31.49214874 23.61888633 21.36951123 39.92752881 39.36541026 48.36290976 53.98679707 7.87326152 14.62138682 12.37201172 30.9300293 12.37201172 48.36290976 0 30.36701074-11.80989316 56.23617217-35.4287795 77.60568341C582.9924667 576.51897187 551.50031885 587.20372793 512.13580771 587.20372793z"  horiz-adv-x="1024" />

    
    <glyph glyph-name="gongsiyoubian" unicode="&#58912;" d="M512-128C229.2224-128 0 101.2224 0 384S229.2224 896 512 896s512-229.2224 512-512-229.2224-512-512-512z m0 998.4C243.3792 870.4 25.6 652.6208 25.6 384s217.7792-486.4 486.4-486.4 486.4 217.7792 486.4 486.4S780.6208 870.4 512 870.4zM512-128C229.2224-128 0 101.2224 0 384S229.2224 896 512 896s512-229.2224 512-512-229.2224-512-512-512z m0 998.4C243.3792 870.4 25.6 652.6208 25.6 384s217.7792-486.4 486.4-486.4 486.4 217.7792 486.4 486.4S780.6208 870.4 512 870.4zM630.1184 290.1248c11.8016 0 19.6864-8.0896 19.6864-20.2496 0-12.16-7.8848-20.2752-19.6864-20.2752h-39.3728c-11.8272 0-19.712 8.1152-19.712 20.2752 0 12.16 7.8848 20.2496 19.712 20.2496h39.3728zM472.576 371.2c11.8272 0 19.712-8.1152 19.712-20.2752 0-12.16-7.8848-20.2496-19.712-20.2496h-78.7456c-11.8272 0-19.712 8.0896-19.712 20.2496 0 12.16 7.8848 20.2752 19.712 20.2752h78.7456z m196.9152-243.2H354.432c-55.1424 0-98.4576 44.5952-98.4576 101.3248v121.6c0 12.16 7.8848 20.2752 19.6864 20.2752 11.8272 0 19.712-8.1152 19.712-20.2752v-121.6c0-32.4096 27.5456-60.8 59.0592-60.8h315.0592c31.5136 0 59.0848 28.3904 59.0848 60.8V513.0752c0 32.4096-27.5712 60.8-59.0848 60.8H354.432c-31.5136 0-59.0592-28.3904-59.0592-60.8 0-12.16 7.8592-20.2752 19.6864-20.2752h236.288c11.8272 0 19.6864-8.1152 19.6864-20.2752 0-12.16-7.8592-20.2496-19.6864-20.2496h-236.288c-31.5136 0-59.0848 28.3648-59.0848 60.8 0 56.7296 43.3152 101.3248 98.4576 101.3248h315.0592c55.1424 0 98.4576-44.5952 98.4576-101.3248v-283.7504c0-56.7296-43.3152-101.3248-98.4576-101.3248z"  horiz-adv-x="1024" />

    
    <glyph glyph-name="tubiaozhexiantu" unicode="&#58892;" d="M526.66271057 271.82178954999995v-183.95521875c0-3.23912659 1.23612671-6.47833557 3.70747376-8.94877624s5.71047364-3.70747375 8.94877624-3.70747376h93.038625c3.23912659 0 6.47833557 1.23612671 8.94877625 3.70747376s3.70747375 5.71047364 3.70747375 8.94877624V333.01303125000004l-94.59871216-81.43365784L526.66271057 271.82178954999995zM129.08515625 87.86566773000004c0-3.23912659 1.23522034-6.47833557 3.70747375-8.94877625 2.47134705-2.47134705 5.71047364-3.70747375 8.94877625-3.70747375h93.02596875c3.23912659 0 6.47833557 1.23612671 8.94877625 3.70747375 2.47134705 2.47134705 3.70747375 5.71047364 3.70747375 8.94877625V275.524125L129.08515625 177.90986023000005V87.86568750000004zM327.84991455 341.896875v-254.0295c0-3.23912659 1.23522034-6.47833557 3.70747376-8.94877625 2.47134705-2.47134705 5.71047364-3.70747375 8.94877624-3.70747375H433.5565625c3.23912659 0 6.47833557 1.23612671 8.94877625 3.70747375 2.47134705 2.47134705 3.70747375 5.71047364 3.70747375 8.94877625V340.30978125l-59.14522705 50.36009216L327.84991455 341.896875zM725.45103455 87.86566773000004c0-3.23912659 1.23612671-6.47833557 3.70747375-8.94877625s5.71047364-3.70747375 8.94877625-3.70747375h93.07659375c3.23912659 0 6.47833557 1.23612671 8.94877624 3.70747375s3.70747375 5.71047364 3.70747376 8.94877625V504.20146875L725.45103455 402.26553955V87.86568750000004zM705.03731079 719.77962341c-1.66220398 0-3.23665466-0.98802795-3.90489807-2.62065124s-0.23796387-3.44083557 0.94666442-4.60601807l88.94641114-87.45724182-240.61220398-207.17778626-163.34579773 139.134375L128.40677795 343.67715453999995v-92.1695625l258.66087342 213.36410523 163.34579772-139.11163331 290.64147034 250.19972534 73.490625-72.27649841c1.17622375-1.15595398 2.9725708-1.56011352 4.58830262-0.8825592s2.58777466 2.24187011 2.58777465 3.89056091V715.56084375c0 1.07998352-0.41174011 2.15914307-1.2361267 2.98352966-0.82348023 0.82348023-1.90346375 1.23522034-2.9826233 1.23522034H705.03734375z"  horiz-adv-x="1024" />

    
    <glyph glyph-name="shouqicaidan" unicode="&#58914;" d="M123.68342282 677.24341096h776.87345303c21.44847645 0 38.83614815 17.3876717 38.83614815 38.83614815s-17.3876717 38.83614815-38.83614815 38.83614814H123.68342282c-21.44847645 0-38.83614815-17.3876717-38.83614815-38.83614814s17.3876717-38.83614815 38.83614815-38.83614815zM900.55687585 445.1780077H422.86254459c-21.44847645 0-38.83614815-17.3876717-38.83614814-38.83614815s17.3876717-38.83614815 38.83614814-38.83614814h477.69433126c21.44847645 0 38.83614815 17.3876717 38.83614815 38.83614814s-17.3876717 38.83614815-38.83614815 38.83614815zM900.55687585 133.72059495999997H123.68342282c-21.44847645 0-38.83614815-17.3876717-38.83614815-38.83614815s17.3876717-38.83614815 38.83614815-38.83614815h776.87345303c21.44847645 0 38.83614815 17.3876717 38.83614815 38.83614815s-17.3876717 38.83614815-38.83614815 38.83614815zM277.80346311 600.0068077000001l-194.18074074-194.18074074 194.18074074-194.18074074z"  horiz-adv-x="1024" />

    
    <glyph glyph-name="zhankaicaidan" unicode="&#58916;" d="M123.68342282 655.9100776299999h776.87345303c21.44847645 0 38.83614815 17.3876717 38.83614815 38.83614815s-17.3876717 38.83614815-38.83614815 38.83614814H123.68342282c-21.44847645 0-38.83614815-17.3876717-38.83614815-38.83614814s17.3876717-38.83614815 38.83614815-38.83614815zM123.67250015 346.17116445h477.69433126c21.44847645 0 38.83614815 17.3876717 38.83614814 38.83614814s-17.3876717 38.83614815-38.83614814 38.83614816H123.67250015c-21.44847645 0-38.83614815-17.3876717-38.83614815-38.83614816s17.3876717-38.83614815 38.83614815-38.83614814zM900.55687585 112.38726163000001H123.68342282c-21.44847645 0-38.83614815-17.3876717-38.83614815-38.83614815s17.3876717-38.83614815 38.83614815-38.83614815h776.87345303c21.44847645 0 38.83614815 17.3876717 38.83614815 38.83614815s-17.3876717 38.83614815-38.83614815 38.83614815zM746.42712652 190.31199289000006l194.18074073 194.18074074-194.18074073 194.18074074z"  horiz-adv-x="1024" />

    
    <glyph glyph-name="icon-test" unicode="&#58904;" d="M905.820925 632.1947319999999c-14.292518 19.795858-30.868031 35.298947-56.892754 35.298947H281.941835l-15.624862 32.755008c-2.87242 21.766746-21.698185 38.118156-43.672662 38.118156h-99.648534c-10.05296 0-18.237363-8.175193-18.237363-18.219967 0-10.05296 8.184403-18.22099 18.237363-18.22099h99.648534c3.737114 0 6.990205-2.855024 7.492648-6.505157l58.258869-436.296831c6.212492-37.140898 31.785937-52.30732 64.419171-52.30732h442.958555c10.05296 0 10.55438 2.180666 15.538904 9.456373 13.288654 48.362474 35.748179 110.402459 55.335283 185.445596l48.136323 162.216545c8.184403 24.534789 5.03569 48.759517-8.963139 68.25964zM423.619602 171.41427699999997c-38.949081 0-70.665433-31.81152-70.665433-70.89056 0-39.087227 31.716352-70.889537 70.665433-70.889537 38.966477 0 70.682829 31.80231 70.682829 70.889537 0 39.07904-31.716352 70.89056-70.682829 70.89056z m319.051523 0c-38.966477 0-70.682829-31.81152-70.682829-70.89056 0-39.087227 31.716352-70.889537 70.682829-70.889537 38.950104 0 70.666456 31.80231 70.666456 70.889537-0.001023 39.07904-31.717376 70.89056-70.666456 70.89056z"  horiz-adv-x="1024" />

    
    <glyph glyph-name="baobiao" unicode="&#58909;" d="M922.625 52.125H157.625c-16.875 0-28.125 11.25-28.125 28.125V744c0 16.875-11.25 28.125-28.125 28.125s-28.125-11.25-28.125-28.125v-691.875c0-28.125 22.5-56.25 56.25-56.25h787.5c16.875 0 28.125 11.25 28.125 28.125s-11.25 28.125-22.5 28.125zM213.875 271.5h56.25c5.625 0 16.875 5.625 22.5 16.875l56.25 95.625 84.375-191.25 16.875-16.875c11.25-5.625 28.125 5.625 33.75 16.875l112.5 371.25 78.75-270c0-11.25 11.25-22.5 28.125-22.5h140.625c11.25-16.875 28.125-28.125 45-28.125 28.125 0 56.25 22.5 56.25 56.25s-22.5 56.25-56.25 56.25c-22.5 0-39.375-11.25-45-28.125h-123.75L618.875 670.875c0 11.25-16.875 22.5-33.75 16.875-5.625 0-11.25-5.625-11.25-5.625s-5.625-5.625-5.625-11.25L450.125 282.75l-73.125 168.75c0 5.625-5.625 5.625-5.625 11.25-5.625 5.625-16.875 5.625-28.125 0-5.625 0-11.25-5.625-11.25-11.25L253.25 327.75h-39.375c-16.875 0-28.125-11.25-28.125-28.125 0-11.25 11.25-28.125 28.125-28.125z"  horiz-adv-x="1024" />

    
    <glyph glyph-name="gongsi" unicode="&#58880;" d="M801.80834961 38.35089111000002V689.7522583L698.82800293 779.5078125 356.04632569 651.4127197299999v-32.03613282L667.33569337 724.28503418v-732.95013428h207.2213745v47.01599121h-72.74871826zM244.51312256 239.02166748000002l163.22113037 32.65411377V354.50994873L244.51312256 311.57263183v-72.55096435z m0-248.7991333h163.22113037V77.13537597000004l-163.22113037-11.84051513v-75.07232666z m0 124.80743408l163.22113037 15.77087403v82.68585204l-163.22113037-27.43835449v-71.01837158z m0 250.35644531l163.22113037 44.96429443V496.34893799l-163.22113037-55.22277832v-75.7397461z m344.26483154 213.92028809l-92.15332032 56.01379395L149.61596681 510.19171143 149.44293213-11.5078125h45.70587159V484.95336914L454.77496338 570.45721435v-579.29534912h134.02770996V579.30670166z m0 0"  horiz-adv-x="1024" />

    
    <glyph glyph-name="wuyeweixiu" unicode="&#58884;" d="M789.82840329 207.49040039L621.86029237 376.92228494999995l136.13101818 136.13101743a135.39913021 135.39913021 0 0 1 159.18546368 175.65292581l-64.04012908-65.86984708a59.28286222 59.28286222 0 0 0-83.80108366 0 59.28286222 59.28286222 0 0 0 0 83.80108289L831.91191614 772.14136826a135.0331866 135.0331866 0 0 1-175.28698221-159.18546445L519.03014209 476.8248864 384.36289909 612.95590381A135.39913021 135.39913021 0 0 1 209.07591688 772.14136826l64.04012906-64.04012985a59.28286222 59.28286222 0 0 0 0-83.80108289 59.28286222 59.28286222 0 0 0-83.80108288 0L123.81105957 686.87651018a135.39913021 135.39913021 0 0 1 159.18546366-175.28698222L419.12754066 376.92228494999995l-167.60216656-169.06594096a109.78307874 109.78307874 0 0 1-84.89891369-31.47114912 109.78307874 109.78307874 0 1 1 186.63123316-69.89522674L519.03014209 274.09213468999997l167.60216733-167.60216656a109.78307874 109.78307874 0 1 1 101.36637586 101.36637586zM243.10867123 45.37738790000003a50.13427291 50.13427291 0 1 0 50.1342729 49.76832852 50.13427291 50.13427291 0 0 0-50.13427291-49.76832852z m554.77049056-1.82971801A50.13427291 50.13427291 0 1 0 848.3793783 93.31599841000002a50.13427291 50.13427291 0 0 0-50.50021651-50.13427213z"  horiz-adv-x="1046" />

    
    <glyph glyph-name="chuanzhen" unicode="&#59030;" d="M830.03904 565.05856h-42.79296V720.7168c0 34.90816-28.42112 63.31392-63.35488 63.31392H295.10656c-34.93376 0-63.35488-28.40064-63.35488-63.31392v-155.65824h-42.79808c-45.98272 0-83.39968-37.38624-83.39968-83.33824v-225.59744c0-46.0288 37.41184-83.4816 83.39968-83.4816h42.79808v-119.49568c0-34.90816 28.42112-63.31392 63.35488-63.31392h428.78464c34.93376 0 63.35488 28.40576 63.35488 63.31392v119.5008h42.79296c45.98272 0 83.39968 37.44768 83.39968 83.4816V481.72032c0 45.95712-37.41184 83.33824-83.39968 83.33824zM292.68992 720.7168c0 1.24416 1.152 2.37568 2.41664 2.37568h428.78464c1.26464 0 2.41664-1.13152 2.41664-2.37568v-155.65824H292.68992V720.7168z m433.6128-667.56608c0-1.17248-1.21856-2.37568-2.41664-2.37568H295.10656c-1.19808 0-2.41664 1.19808-2.41664 2.37568V318.79168c0 1.29536 1.17248 2.51904 2.41664 2.51904h428.78464c1.23904 0 2.41664-1.22368 2.41664-2.51904V53.15072z m126.19776 202.97216c0-12.22144-10.28608-22.53824-22.46144-22.53824h-42.79296v85.20704c0 34.99008-28.42112 63.45728-63.35488 63.45728H295.10656c-34.93376 0-63.35488-28.4672-63.35488-63.45728v-85.20704h-42.79808c-12.17536 0-22.46144 10.32192-22.46144 22.53824V481.72032c0 12.35456 10.07616 22.4 22.46144 22.4H830.04416c12.38528 0 22.46144-10.05056 22.46144-22.4v-225.59744z"  horiz-adv-x="1024" />

    
    <glyph glyph-name="quanping1" unicode="&#58885;" d="M131.49423828 776.22597655c-3.44267578-0.03867188-6.88623047-1.34648437-9.50097656-4.00078124-2.63496094-2.615625-3.94277344-6.07675781-3.94277344-9.53876953l0.13359375-280.10126953a4.53867187 4.53867187 0 0 1 2.7703125-4.15458984c1.73144531-0.69257813 3.65449219-0.26894531 4.90429688 1.00019531L220.54589844 573.6697265600001l126.94921875-126.39550781c2.42226563-2.42314453 5.8078125-3.9234375 9.53876953-3.9234375 3.69140625 0 7.07695313 1.50029297 9.50097655 3.9234375l86.20312501 85.81464844c2.4609375 2.42314453 3.96123047 5.80869141 3.96123047 9.57832031 0 3.73007812-1.50029297 7.115625-3.96210937 9.57744141l-126.86132813 126.31904297L417.88583984 770.18701172c1.26914062 1.23046875 1.69277344 3.15527344 0.96152343 4.92363281-0.69257813 1.73056641-2.38535156 2.76855469-4.15371093 2.76855469L131.49423828 776.22685547zM131.59003906-9.880078130000015c-3.46113281-0.03867188-6.92314453 1.3078125-9.55898437 3.92343751a13.49912109 13.49912109 0 0 0-3.98056641 9.5765625l0.13359375 282.44794921c0 1.76923828 1.03886719 3.46201172 2.7703125 4.15371094 1.73144531 0.73125001 3.65449219 0.26982422 4.90429688-0.96152344L220.54589844 194.98330078000004l126.94921875 126.43330078c2.42226563 2.42314453 5.8078125 3.9234375 9.53876953 3.9234375 3.69140625 0 7.07695313-1.50029297 9.50097655-3.9234375l86.20312501-85.81376953c2.4609375-2.46181641 3.96123047-5.84736327 3.96123047-9.57832031s-1.50029297-7.15429689-3.96210937-9.57744141L325.87490234 90.12890625l92.08828125-91.69980469a4.55361328 4.55361328 0 0 0 1.00019532-4.92451171c-0.73125001-1.73056641-2.38535156-2.76855469-4.15371094-2.80810548l-283.21875-0.5765625zM892.48466797 776.22597655c3.46289063-0.03867188 6.88535156-1.34648437 9.50097656-4.00078124 2.65429689-2.615625 3.96210938-6.07675781 3.96210938-9.53876953l-0.1538086-280.10126953a4.53867187 4.53867187 0 0 0-2.7703125-4.15458984c-1.73056641-0.69257813-3.65449219-0.26894531-4.88496093 1.00019531L803.43652343 573.67060547l-126.94042968-126.39550781c-2.4609375-2.42314453-5.8078125-3.9234375-9.53876953-3.9234375s-7.07783203 1.50029297-9.53964844 3.9234375l-86.16445312 85.81464843c-2.46181641 2.42314453-3.96210938 5.80869141-3.96210938 9.57832032 0 3.73007812 1.50029297 7.115625 3.96210938 9.53876953L698.15234375 678.56367188 606.10273437 770.18701172c-1.27001953 1.23046875-1.69277344 3.15527344-0.96152343 4.92363281 0.69257813 1.73056641 2.38447266 2.76855469 4.15458984 2.76855469l283.18886719-1.65322265zM892.40820313-9.880078130000015c3.46289063-0.03867188 6.92314453 1.3078125 9.53876953 3.92343751 2.65429689 2.65341797 4.00078125 6.11542969 4.00078125 9.5765625l-0.1538086 282.44794921c0 1.76923828-1.03886719 3.46201172-2.7703125 4.15371094-1.73056641 0.73125001-3.65449219 0.26982422-4.88496094-0.96152344L803.43652343 194.98417969000002l-126.94042968 126.43330078c-2.4609375 2.42314453-5.8078125 3.9234375-9.53876953 3.9234375s-7.07783203-1.50029297-9.53964844-3.9234375l-86.16445312-85.81376953c-2.46181641-2.46181641-3.96210938-5.84736327-3.96210938-9.57832031s1.50029297-7.15429689 3.96210938-9.57744141L698.15234375 90.12978515999998 606.02539063-1.5708984399999508a4.55537109 4.55537109 0 0 1-1.00107422-4.92451173c0.73125001-1.73056641 2.38535156-2.76855469 4.15458984-2.80810545l283.22753906-0.5765625z"  horiz-adv-x="1024" />

    
    <glyph glyph-name="dianhua1" unicode="&#58891;" d="M716.28154297-9.10400390999996h-0.01669922l-4.05966797 0.09140625c-94.45869141 4.83134766-222.02050781 93.73710938-341.26611328 237.82851563l-44.04726563 53.20107422C207.64619141 426.11894531 145.17177734 566.85732422 159.78183594 658.5 170.09316406 723.15322266 266.215625 777.71484375 321.14023437 777.71484375c27.05273438 0 36.85341797-13.46220703 40.28027344-21.5015625 31.0921875-55.25507812 69.56367187-151.34677734 69.74121094-185.81132812l0.01054687-2.45214844-0.87890625-2.29042969c-6.85722656-18.11601562-22.20117188-26.79521484-35.73720703-34.45048828-17.83300781-10.07753906-27.96767578-16.69482422-29.20605468-35.74511719-0.36738281-5.78144531 4.61953125-32.08183594 83.29042968-129.06035156l33.63486328-40.61425781c78.88886719-93.10078125 103.70917969-103.12207031 109.52050782-103.95087891 19.02392578-2.64550781 27.98173828 5.6953125 41.66367187 20.69296875 10.41591797 11.42050781 22.2328125 24.38085938 41.72958985 27.23642578l2.46884765 0.3515625 2.42753906-0.51503906c34.3546875-7.24482422 122.29277344-63.91845703 172.21464844-105.99345703 7.20791016-4.78388672 19.78681641-18.98613281 9.82617188-50.36044922-15.62519531-49.27412109-83.74306641-122.35429687-145.84570313-122.35429688z"  horiz-adv-x="1024" />

    
    <glyph glyph-name="chushaixuanxiang" unicode="&#58906;" d="M512 275.456l253.3376-253.3376a76.6976 76.6976 0 1 1 108.544 108.544L620.6464 384l253.2352 253.3376a76.6976 76.6976 0 1 1-108.544 108.544L512 492.6464 258.6624 745.8815999999999a76.6976 76.6976 0 1 1-108.544-108.544L403.3536 384 150.1184 130.66240000000005a76.6976 76.6976 0 1 1 108.544-108.544L512 275.35360000000003z"  horiz-adv-x="1024" />

    
    <glyph glyph-name="zengzhifuwu" unicode="&#59048;" d="M905.6965853 164.71082519000004c-8.90845257 12.41208243-25.04144367 12.73800146-26.83399878 12.73800147-12.62936206 0-31.6684638-3.66658897-43.40154831-8.33809488-0.32591904-0.16295911-35.28073306-13.90587754-126.83681516-36.72020847a499.47088486 499.47088486 0 0 0-120.6715133-15.53547271c-49.13229089 0-84.44018381 8.50105399-103.18052719 14.42191634 25.66612189 3.12339029 76.6996073 8.58253436 120.42707465 8.58253355 44.18918564 0 71.51206339 22.21681255 71.51206337 42.85835046 0 8.74549347-4.61718622 16.29595019-13.03676064 21.1575759-7.36033777 4.34558689-17.54530665 6.46406021-30.28330811 6.46406021-26.15500086 0-60.94685497 7.74057651-97.83002335 15.97003116-42.74971024 9.47881109-86.93889588 19.28354123-125.99485729 19.28354206-73.73917612 0-118.6073605-25.28588315-120.48139517-26.34512064-8.17513495-4.72582563-23.71060766-8.90845257-33.16225891-8.90845258H143.83373733c-17.02926864 0-30.88082647-13.79723813-30.88082647-30.82650677v-88.54133121c0-16.97494812 13.85155783-30.90798633 30.88082647-30.90798633h112.08897977c9.64177103 0 25.66612189-3.72090866 34.33013581-8.01217584 1.16787609-0.57035852 30.82650678-15.29103323 121.32335137-51.87544245 32.8363407-13.30835998 69.28494982-19.989699 108.3137514-19.989699 100.5188552 0 192.78109507 43.97190683 227.7359091 62.90236917 53.83095667 29.06111152 53.83095667 29.06111152 102.74596875 48.34465275 46.85085764 18.36010464 56.27534902 33.89557735 58.04074347 40.6855566 4.23694748 13.28119931 3.31351007 24.25380633-2.7159917 32.59190121z m-395.20396033 95.98314853c145.49567815 0 263.47836044 117.98268228 263.47836045 263.53268097S655.98830313 787.75933484 510.49262497 787.75933484c-145.54999868 0-263.53268015-117.98268228-263.53268097-263.53268015s117.95552243-263.53268015 263.53268097-263.53268097zM396.80120987 536.6930568299999c-16.48606998 1.60243533-25.55748249 8.22945466-27.21423752 19.79958004 0 14.80215509 9.0170928 22.21681255 27.21423752 22.21681257h59.31725977l-44.08054623 69.23063013c0 1.60243533-0.84195786 3.28635022-2.49871289 4.88878471a93.43011676 93.43011676 0 0 0-7.41465747 19.8267399c1.65675503 13.09108035 9.07141251 20.58721738 22.21681255 22.21681257 13.19971975 0 23.08593027-5.78506228 29.65863071-17.30086716l56.49262866-84.08710491 57.17162576 85.60805986c6.57270044 11.51580487 16.48606998 17.30086716 29.71295041 17.30086799 13.14540006-1.71107473 20.58721738-9.07141251 22.21681256-22.2711331 0-3.28635022-2.49871207-9.85904983-7.41465747-19.74525952-1.65675503-1.65675503-2.49871207-3.28635022-2.49871289-4.94310524l-44.86818356-70.75158509h59.37157946c18.08850532 0 27.15991782-7.41465747 27.15991782-22.21681256-1.65675503-11.57012458-10.72816755-18.19714473-27.15991782-19.79958004h-86.53149727v-44.5151055h86.53149727c18.08850532 0 27.15991782-7.41465747 27.15991782-22.27113227-1.65675503-11.51580487-10.72816755-18.08850532-27.15991782-19.69093982h-86.53149727V376.74830164c0-16.54038969-9.07141251-24.76984515-27.159917-24.76984434-18.14282501 0-27.21423753 8.22945466-27.21423752 24.76984434v73.4675776h-86.47717758c-16.48606998 1.60243533-25.55748249 8.17513495-27.21423753 19.69093982 0 14.85647479 9.0170928 22.27113226 27.21423753 22.27113309h86.47717758V536.6930568299999h-86.47717758z"  horiz-adv-x="1024" />

    
    <glyph glyph-name="guanbiqita" unicode="&#58898;" d="M512 457.35L657.35 609 737 545.4375 582.3125 384 737 222.5625 657.35 159 512 310.65 366.65 159 287 222.5625 441.6875 384 287 545.4375 366.65 609 512 457.35zM62 496.5V721.8375C62 783.76875 112.34375 834 174.1625 834H399.5v-112.5H174.5v-225H62z m0-225h112.5v-225h225v-112.5H174.1625A112.21875 112.21875 0 0 0 62 46.16250000000002V271.5z m900 225h-112.5V721.5h-225V834h225.3375C911.76875 834 962 783.65625 962 721.8375V496.5z m0-225v-225.3375A112.21875 112.21875 0 0 0 849.8375-66H624.5v112.5h225v225h112.5z"  horiz-adv-x="1024" />

    
    <glyph glyph-name="fl-zuzhi" unicode="&#58923;" d="M392.20906667 746.0191999900001v-186.6496h259.21066666V746.0191999900001zM882.4064 263.82079998999995H729.0176v-186.688H988.26666667v186.688zM161.26186667 263.82079998999995H55.40053333v-186.688h259.24906667v186.688h-105.93706667zM498.06933333 263.82079998999995h-105.86026666v-186.688h259.21066666v186.688h-105.86026666zM858.6432 435.35893333H545.55946667v96.01706666H498.06933333v-96.01706666H161.26186667v-141.04533334h47.45066666v90.21013334H498.06933333v-90.21013334h47.49013334v90.21013334h289.39626666v-90.21013334h47.45066667v141.04533334z"  horiz-adv-x="1024" />

    
    <glyph glyph-name="kehu" unicode="&#58991;" d="M588.8 273.06666656000004s-31.99999969 8.53333312-40.53333375 12.79999969c-17.06666625 10.66666687-27.73333313 31.99999969-27.73333313 53.33333344 0 23.46666656 19.2 42.66666656 32.00000063 57.6 31.99999969 38.4 49.06666688 89.59999969 49.06666594 147.20000062 0 119.46666656-85.33333312 215.46666656-189.86666625 215.46666656S221.86666625 661.33333313 221.86666625 541.86666656c0-57.6 19.2-108.79999969 49.06666688-147.19999968 19.2-10.66666687 31.99999969-34.13333344 32.00000062-57.6 0-21.33333375-10.66666687-40.53333375-27.73333406-53.33333344v-2.13333375c-2.13333375 0-4.26666656-2.13333375-4.26666656-2.13333282-10.66666687-6.40000031-21.33333375-10.66666687-34.13333344-10.66666687-81.06666656-27.73333313-149.33333344-70.39999969-189.86666625-123.73333313h2.13333281c-10.66666687-14.93333344-14.93333344-31.99999969-14.9333325-49.06666687 0-51.19999969 42.66666656-93.86666625 96-93.86666625H693.33333312c55.46666625 0 98.13333375 40.53333375 98.13333376 93.86666625 0 21.33333375-8.53333312 40.53333375-19.2 57.6-40.53333375 53.33333344-104.53333312 93.86666625-183.46666688 119.46666656zM970.66666625 179.20000030999995c-36.26666625 44.80000031-91.73333344 83.20000031-162.13333312 104.53333313 0 0-27.73333313 6.40000031-36.26666625 10.66666687-14.93333344 10.66666687-23.46666656 27.73333313-23.46666657 46.93333313 0 21.33333375 17.06666625 38.4 27.73333313 49.06666687 27.73333313 34.13333344 44.80000031 78.93333375 44.80000031 130.13333344 0 104.53333312-74.66666625 192-168.53333344 192-14.93333344 0-29.86666687-2.13333375-42.66666656-6.40000031 31.99999969-46.93333312 49.06666688-102.40000031 49.06666594-164.26666688 0-66.13333312-23.46666656-130.13333344-63.99999938-183.46666687l-4.26666656-4.26666656v-2.13333282c-4.26666656-4.26666656-10.66666687-10.66666687-12.80000062-17.06666718 0-2.13333375 0-2.13333375 2.13333375-2.13333282 4.26666656-2.13333375 10.66666687-4.26666656 17.06666625-4.26666656h2.13333375l8.53333312-4.2666675c87.46666687-27.73333313 162.13333312-76.8 211.2-138.66666656 21.33333375-27.73333313 34.13333344-59.73333375 34.13333344-93.86666625 0-19.2-4.26666656-34.13333344-10.66666688-51.19999969h61.86666657c49.06666688 0 87.46666687 36.26666625 87.46666687 83.19999938-2.13333375 23.46666656-8.53333312 40.53333375-21.33333375 55.46666718z m0 0"  horiz-adv-x="1024" />

    
    <glyph glyph-name="sure" unicode="&#58942;" d="M511.77587891-7.075488279999945c-216.20566406 0-391.45605469 175.27412109-391.45605469 391.45605469 0 216.20566406 175.25039062 391.45605469 391.45605469 391.45605468s391.45605469-175.27412109 391.45605468-391.45605468-175.27412109-391.45605469-391.45605468-391.45605469z m0 733.97988281c-189.17138672 0-342.52382812-153.35332031-342.52382813-342.52382812s153.35332031-342.52382812 342.52382813-342.52382813 342.52382812 153.35332031 342.52382812 342.52382813-153.37617187 342.52382812-342.52382812 342.52382812z m-41.34726563-478.82460937c-0.80771484-1.14960938-1.29726563-2.47060547-2.32470703-3.52265625-4.81992188-4.81992188-11.18056641-7.04619141-17.49287109-6.8756836-6.31230469-0.14589844-12.67382813 2.05576172-17.46826172 6.8756836-1.02832031 1.02744141-1.51787109 2.34931641-2.32382813 3.49892578l-120.03046876 120.00585937c-9.32167969 9.34541017-9.32167969 24.46611328 0 33.78691407 9.34541017 9.32167969 24.46611328 9.32167969 33.78779298 0l106.01015625-106.03564454 228.34160156 228.36533204c9.32167969 9.32167969 24.46611328 9.32167969 33.78779297 0 9.34541017-9.32080078 9.34541017-24.46611328 0-33.78691407L470.42861328 248.07978516000003z"  horiz-adv-x="1024" />

    
    <glyph glyph-name="moshiqiehuan" unicode="&#58902;" d="M610.26303694 680.1474607600001h256.2011717a36.25488256 36.25488256 0 0 1 40.20996146 31.94824202 36.25488256 36.25488256 0 0 1-39.55078125 31.8164066h-256.20117171a36.25488256 36.25488256 0 0 1-40.16601605-31.8164066 36.25488256 36.25488256 0 0 1 39.55078125-31.81640582v-0.1318362z m0-202.58789079h256.2011717a36.25488256 36.25488256 0 0 1 40.20996146 32.2558598 36.25488256 36.25488256 0 0 1-39.55078125 31.81640582h-256.20117171a36.25488256 36.25488256 0 0 1-40.16601605-31.81640582 36.25488256 36.25488256 0 0 1 39.55078125-31.81640659v-0.43945321z m0-255.6298823h256.2011717c19.86328143-2.28515608 37.7929684 11.86523438 40.20996146 31.6845704a36.25488256 36.25488256 0 0 1-39.55078125 31.81640581h-256.20117171a36.25488256 36.25488256 0 0 1-40.16601605-31.81640581 36.25488256 36.25488256 0 0 1 39.55078125-31.81640659v0.13183619z m0-202.6757816h256.2011717a36.25488256 36.25488256 0 0 1 40.20996146 32.08007822 36.25488256 36.25488256 0 0 1-39.55078125 31.86035199h-256.20117171a36.25488256 36.25488256 0 0 1-40.16601605-31.81640659 36.25488256 36.25488256 0 0 1 39.55078125-31.8164066v-0.30761702zM370.40952174 344.36132795000003H218.00717773A101.51367162 101.51367162 0 0 1 116.49350611 242.71582014v-152.40234323a101.51367162 101.51367162 0 0 1 101.68945322-101.64550781H370.49741176a101.68945321 101.68945321 0 0 1 101.64550782 101.64550781v152.40234323a101.68945321 101.68945321 0 0 1-101.64550782 101.64550782h-0.13183542z m46.14257787-251.19140633c0-27.02636744-21.9726559-48.95507796-48.99902335-48.95507795H220.73178703a48.95507796 48.95507796 0 0 0-48.95507796 48.95507795v146.95312543c0 27.07031285 21.92871128 48.95507796 48.95507795 48.95507795h146.82128924c27.07031285 0 48.95507796-21.88476588 48.95507795-48.95507795v-146.95312543zM370.36557634 779.5078125H218.00717773A101.68945321 101.68945321 0 0 1 116.49350611 677.29101528v-152.35839784a101.68945321 101.68945321 0 0 1 101.68945322-101.6894532H370.49741176a101.68945321 101.68945321 0 0 1 101.64550782 101.6894532V677.29101528A101.68945321 101.68945321 0 0 1 370.40952174 779.5078125z m46.14257787-251.19140633c0-27.07031285-21.9726559-48.95507796-48.99902335-48.95507796H220.73178703a48.95507796 48.95507796 0 0 0-48.95507796 48.95507796V674.61035139c0 27.02636744 21.92871128 48.95507796 48.95507795 48.95507795h146.82128924c27.07031285 0 48.95507796-21.9726559 48.95507795-48.95507795v-146.33789062z"  horiz-adv-x="1024" />

    
    <glyph glyph-name="youjiantou" unicode="&#58889;" d="M847.938 381.44500000000005l-669.322-392.953 192.683 398.022-195.238 392.993z"  horiz-adv-x="1024" />

    
    <glyph glyph-name="project_space" unicode="&#58894;" d="M189.94363817 553.50334788L512 389.65011183 834.05636183 553.50334788 512 711.70647288 189.94363817 553.50334788z m45.20089308-254.25502221L167.34319163 333.14899586C144.74274587 344.44921875 133.44252222 361.39955347 133.44252222 384s11.30022289 39.55078125 33.90066941 50.85100414l67.80133962 33.90067019-67.80133962 33.90066942C139.09263403 513.95256663 127.79241038 547.85323683 139.09263403 576.10379442c5.65011183 11.30022289 16.95033472 22.60044653 22.60044655 22.60044654L483.74944164 756.90736597c16.95033472 5.65011183 33.90066942 5.65011183 50.8510049-1e-8l322.05636182-158.20312499c28.25055836-11.30022289 39.55078125-45.20089308 22.60044577-73.45145068-5.65011183-11.30022289-16.95033472-22.60044653-22.60044577-22.60044654l-67.80133961-33.90066942L851.00669653 440.50111596c28.25055836-11.30022289 39.55078125-28.25055836 39.55078126-56.50111596 0-22.60044653-11.30022289-45.20089308-39.55078125-56.50111596l-62.15122779-28.25055837L851.00669653 270.99776808c28.25055836-11.30022289 39.55078125-28.25055836 39.55078126-56.50111596 0-22.60044653-11.30022289-45.20089308-39.55078125-56.50111673l-310.75613818-152.55301317c-5.65011183-5.65011183-16.95033472-5.65011183-28.25055836-5.65011184s-16.95033472 0-28.25055837 5.65011183L161.69308058 163.64564722c-22.60044653 11.30022289-28.25055836 28.25055836-28.25055836 50.8510049s11.30022289 39.55078125 33.90066942 50.85100413l67.80133961 33.90066942z m62.15122779-33.90066942l-107.35212087-50.85100414L512 50.64341528l322.05636183 158.20312501-107.35212087 50.85100413-186.45368259-90.40178538c-5.65011183-5.65011183-16.95033472-5.65011183-28.25055837-5.65011182s-16.95033472 0-28.25055836 5.65011182L297.29575903 265.34765625z m429.40848193 169.50334788L540.25055836 344.44921875c-16.95033472-5.65011183-33.90066942-5.65011183-50.8510049 0L297.29575903 434.85100414 189.94363817 384 512 220.14676316999999 834.05636183 384l-107.35212087 50.85100414z"  horiz-adv-x="1024" />

    
    <glyph glyph-name="zhuzhuangtu" unicode="&#58990;" d="M121.856 375.92177777999996h108.31644445v-303.21777778h-108.31644445zM241.55022222 61.32622221999998H110.47822222V387.29955555h131.072v-325.97333333z m-108.31644444 22.75555556h85.56088889V364.544h-85.56088889v-280.46222222zM338.48888889 614.1724444500001h108.31644444v-541.46844445h-108.31644444zM458.06933333 61.32622221999998H327.11111111V625.55022222h131.072v-564.224z m-108.20266666 22.75555556h85.56088888V602.79466667h-85.56088888v-518.71288889zM555.008 505.856H663.32444445v-433.152h-108.31644445zM674.70222222 61.32622221999998H543.63022222V517.2337777800001H674.70222222v-455.90755556z m-108.31644444 22.75555556H651.94666667V494.47822222h-85.56088889v-410.39644444zM771.64088889 744.10666667h86.58488889v-671.40266667h-86.58488889zM869.60355555 61.32622221999998h-109.34044444V755.48444445h109.34044444v-694.15822223z m-86.58488888 22.75555556h63.82933333V732.72888889h-63.82933333v-648.64711111zM901.57511111 72.70399999999995H78.62044445M78.62044445 84.08177778000004h822.95466666v-22.75555556H78.62044445z"  horiz-adv-x="1024" />

    
    <glyph glyph-name="biaoge" unicode="&#58938;" d="M138.17173333 703.01013333c0 34.67946667 28.53546667 62.80533333 62.73706667 62.80533334h625.4592c34.6112 0 62.73706667-28.60373333 62.73706667-62.80533334v-625.4592a63.01013333 63.01013333 0 0 0-62.73706667-62.73706666H200.9088a63.01013333 63.01013333 0 0 0-62.80533333 62.80533333V702.94186667z m75.29813334-11.8784v-149.0944h262.28053333V691.13173333H213.46986667z m0-222.75413333v-155.0336h262.28053333v154.96533333H213.46986667z m337.44213333-0.27306667v-154.96533333h263.50933333v154.96533333H550.912zM551.1168 691.2v-149.0944h262.3488V691.13173333H551.1168z m-337.64693333-452.06186667v-149.16266666h262.28053333v149.16266666H213.46986667z m337.64693333 0v-149.16266666h262.3488v149.0944H551.1168z"  horiz-adv-x="1024" />

    
    <glyph glyph-name="mianji1" unicode="&#58887;" d="M207.78350617 688.21649383h608.43298766v-608.43298766H207.78350617zM772.93037037 644.93037037v-521.86074074H251.06962963V644.93037037h521.86074074m48.54518518 48.54518518H202.52444445v-618.9511111h618.9511111V693.47555555zM123.69030005 771.58475852h194.18074075v-194.18074074h-194.18074075zM305.68296297 723.08811852v-133.49925927H172.1837037v133.49925927h133.49925927m48.54518518 48.54518518H123.63851852v-230.58962962h230.58962963v230.58962962zM123.69030005 190.59598222h194.18074075v-194.18074074h-194.18074075zM305.68296297 178.41114074999996v-133.49925927H172.1837037v133.49925927h133.49925927m48.54518518 48.54518517H123.63851852v-230.58962962h230.58962963v230.58962962zM693.99589925 747.36071111h182.04444445v-182.04444444h-182.04444445zM851.8162963 723.08811852v-133.49925927H718.31703703v133.49925927h133.49925927m48.54518518 48.54518518H669.77185185v-230.58962962h230.58962963v230.58962962zM706.1289592 190.59598222h194.18074075v-194.18074074h-194.18074075zM851.8162963 178.41114074999996v-133.49925927H718.31703703v133.49925927h133.49925927m48.54518518 48.54518517H669.77185185v-230.58962962h230.58962963v230.58962962z"  horiz-adv-x="1024" />

    
    <glyph glyph-name="authority" unicode="&#58915;" d="M722.9375 462.34821405c36.16071405 36.16071405 36.16071405 90.40178595 0 126.56250001-36.16071405 36.16071405-96.42857107 36.16071405-132.58928595 6.02678594s-36.16071405-90.40178595 0-126.5625 96.42857107-42.1875 132.58928595-6.02678595zM632.53571405 504.53571405c-12.05357108 12.05357108-12.05357108 30.13392892 0 42.1875 12.05357108 12.05357108 30.13392892 12.05357108 42.1875 0 12.05357108-12.05357108 12.05357108-30.13392892 0-42.1875s-30.13392892-12.05357108-42.1875 0z m-421.875-464.06249999c-12.05357108-12.05357108-30.13392892-12.05357108-42.1875-1e-8s-12.05357108 30.13392892 0 42.1875l319.41964297 319.41964297-12.05357107 18.08035704c-48.21428595 84.375-36.16071405 186.83035703 30.1339281 259.15178594 84.375 84.375 216.96428595 84.375 295.3125 0s84.375-216.96428595 0-295.3125c-66.29464298-72.32142893-168.75-84.375-253.125-36.16071405l-18.08035703 12.05357108-132.58928595-132.58928596 66.29464298-66.29464214c12.05357108-12.05357108 30.13392892-12.05357108 42.1875-1e-8 12.05357108 12.05357108 12.05357108 30.13392892 0 42.1875l-18.08035703 24.10714215 54.2410719 54.2410719c102.45535702-48.21428595 229.01785703-30.13392892 307.36607108 54.24107109 108.48214298 108.48214298 108.48214298 277.23214297 0 385.71428594S572.26785702 823.95535703 463.78571405 721.5c-78.34821405-84.375-102.45535702-204.91071405-54.24107108-307.36607107L120.25892893 124.84821405000002c-36.16071405-36.16071405-36.16071405-90.40178595-1e-8-126.5625 36.16071405-36.16071405 90.40178595-36.16071405 126.5625 0l66.29464215 66.29464298-42.1875 36.16071404-60.26785701-60.26785702z m253.12500001 42.18749999l-108.48214298 108.48214298-42.1875-48.21428595 108.48214297-108.48214215c12.05357108-12.05357108 30.13392892-12.05357108 42.1875 0 12.05357108 18.08035703 12.05357108 36.16071405 0 48.21428512z"  horiz-adv-x="1024" />

    
    <glyph glyph-name="yuanqu" unicode="&#58881;" d="M889.52997398 78.38060759999996h-35.95490455V509.84332466c0 39.55078125-32.35980034 71.91058159-71.91058159 71.91058159H637.84332466v-503.37329865h-35.95490455V689.6193924c0 39.55078125-32.35980034 71.91058159-71.91058159 71.91058158H242.33551216c-39.55078125 0-71.90980911-32.35902786-71.90980911-71.90980911v-611.23955726H134.46925354C123.68316841 78.38060759999996 116.4921875 71.18885422000005 116.4921875 60.40199660999997v-35.95567703c0-10.78608513 7.19175339-17.97706604 17.97783852-17.97706604h755.05994796c10.78685761 0 17.97783852 7.19098091 17.97783852 17.97706604v35.95567703c0 10.78685761-7.19175339 17.97783852-17.97783852 17.97783852zM350.20099831 240.17883682000001c0-10.78608513-7.19098091-17.97783852-17.97706604-17.97783851h-71.91058159c-10.78685761 0-17.97783852 7.19175339-17.97783852 17.97783852v35.95567703c0 10.78608513 7.19175339 17.97706604 17.97783852 17.97706604h71.90980911c10.78685761 0 17.97783852-7.19098091 17.97783852-17.97706604v-35.95567703z m0 143.82116318c0-10.78685761-7.19098091-17.97783852-17.97706604-17.97783852h-71.91058159c-10.78685761 0-17.97783852 7.19175339-17.97783852 17.97783852v35.95490456c0 10.78685761 7.19175339 17.97783852 17.97783852 17.97783851h71.90980911c10.78685761 0 17.97783852-7.19098091 17.97783852-17.97783851V384z m0 143.82116318c0-10.78685761-7.19098091-17.97783852-17.97706604-17.97783852h-71.91058159c-10.78685761 0-17.97783852 7.19175339-17.97783852 17.97783851v35.95490456c0 10.78685761 7.19175339 17.97783852 17.97783852 17.97783852h71.90980911c10.78685761 0 17.97783852-7.19175339 17.97783852-17.97783852v-35.95490456z m179.77684021-287.64232636c0-10.78608513-7.19175339-17.97783852-17.97783852-17.97783851h-71.90980911c-10.78763008 0-17.97861099 7.19175339-17.97861099 17.97783852v35.95567703c0 10.78608513 7.19175339 17.97706604 17.97783851 17.97706604H512c10.78685761 0 17.97783852-7.19098091 17.97783852-17.97706604v-35.95567703z m0 143.82116318c0-10.78685761-7.19175339-17.97783852-17.97783852-17.97783852h-71.90980911c-10.78763008 0-17.97861099 7.19175339-17.97861099 17.97783852v35.95490456c0 10.78685761 7.19175339 17.97783852 17.97783851 17.97783851H512c10.78685761 0 17.97783852-7.19098091 17.97783852-17.97783851V384z m0 143.82116318c0-10.78685761-7.19175339-17.97783852-17.97783852-17.97783852h-71.90980911c-10.78763008 0-17.97861099 7.19175339-17.97861099 17.97783852v35.95490455c0 10.78685761 7.19175339 17.97783852 17.97783851 17.97783852H512c10.78685761 0 17.97783852-7.19175339 17.97783852-17.97783852v-35.95490455z m269.66371536-287.64232636c0-10.78608513-7.19020844-17.97783852-17.97706604-17.97783851H709.75390625c-10.78685761 0-17.97783852 7.19175339-17.97783852 17.97783851v35.95567704c0 10.78608513 7.19175339 17.97706604 17.97783852 17.97706604h71.90980911c10.78763008 0 17.97861099-7.19098091 17.978611-17.97706604v-35.95567704z m0 143.82116318c0-10.78685761-7.19020844-17.97783852-17.97706604-17.97783852H709.75390625c-10.78685761 0-17.97783852 7.19175339-17.97783852 17.97783852v35.95490456c0 10.78685761 7.19175339 17.97783852 17.97783852 17.97783851h71.90980911c10.78763008 0 17.97861099-7.19098091 17.978611-17.97783851V384z"  horiz-adv-x="1024" />

    
    <glyph glyph-name="suoding" unicode="&#59274;" d="M812 367.3v-300.1c0-13.9-4.8-25.7-14.6-35.4-9.7-9.7-21.6-14.6-35.4-14.6H262c-13.9 0-25.7 4.8-35.4 14.6-9.7 9.7-14.6 21.6-14.6 35.4V367.3c0 13.9 4.8 25.7 14.6 35.4 9.7 9.7 21.6 14.6 35.4 14.6h16.7v100c0 63.9 22.9 118.8 68.8 164.5s100.7 68.8 164.5 68.8 118.8-22.9 164.5-68.8c45.8-45.8 68.8-100.7 68.8-164.5v-100H762c13.9 0 25.7-4.8 35.4-14.6 9.7-9.7 14.6-21.5 14.6-35.4z m-433.4 50h266.6v100c0 36.8-13 68.2-39.1 94.3-26.1 26.1-57.5 39.1-94.3 39.1s-68.2-13-94.3-39.1c-26.1-26.1-39.1-57.5-39.1-94.3v-100h0.2z"  horiz-adv-x="1024" />

    
    <glyph glyph-name="tuichu" unicode="&#58883;" d="M899.18632812 398.70410156L736.72402343 561.16728516c-7.96289063 7.96289063-20.87578125 7.96289063-28.8430664 0l-32.83945312-32.83857422c-7.96289063-7.96289063-7.96289063-20.88017578 0-28.84306641l71.66425781-71.66425781H420.05234375c-11.26054688 0-20.38974609-9.12919922-20.38974609-20.390625v-46.44580078c0-11.2640625 9.12919922-20.39501953 20.390625-20.39501953h326.49521484l-71.66425781-71.66425782c-7.96289063-7.96289063-7.96289063-20.88017578 0-28.8430664l32.84296875-32.83945313c7.96289063-7.96289063 20.87841797-7.96289063 28.84130859 0l129.77402344 129.77402344c0 0.00439453 0.00439453 0.00439453 0.00439453 0.00439453l32.84296875 32.84296875c7.96025391 7.96464844 7.96025391 20.87666016-0.00351563 28.83955078zM619.29951172 777.08642578H180.01953125c-33.78603516 0-61.17890625-27.39287109-61.17890625-61.17890625V52.502929689999974c0-33.79130859 27.39287109-61.17978516 61.17890625-61.17978516h439.27998047c33.78691406 0 61.17978516 27.38847655 61.17978515 61.17978516v86.0774414c0 11.26054688-9.12919922 20.39501953-20.39501953 20.39501954h-44.20195312c-11.26142578 0-20.39589844-9.13447266-20.39589844-20.39501954v-32.74541015c0-30.17197266 0-30.17197266-30.57802734-30.17197266H233.5625c-30.58769531 0-30.58769531-0.00527344-30.58769531 30.59208985V662.86552734c0 30.67470703-0.06591797 30.58857422 30.58769531 30.58857422h331.34501953c30.58505859 0 30.57802734-0.25136719 30.57802734-30.17285155v-33.70869142c0-11.2640625 9.13447266-20.39501953 20.39589844-20.39501953h44.20195313c11.26582031 0 20.39501953 9.13095703 20.39501953 20.39501953v86.33496094c0 33.78603516-27.39199219 61.17890625-61.17890625 61.17890625z m0 0"  horiz-adv-x="1024" />

    
    <glyph glyph-name="huabanfuben" unicode="&#58939;" d="M512.470805 172.608736A57.673563 57.673563 0 0 0 470.804598 189.793103l-211.862069 211.862069a57.908966 57.908966 0 1 0 81.92 81.92l170.195862-170.195862L907.005057 707.678161A57.908966 57.908966 0 0 0 988.689655 625.287356L553.195402 189.793103a57.673563 57.673563 0 0 0-40.724597-17.184367zM872.40092 410.60046c0-8.945287 1.412414-17.655172 1.412413-26.60046a371.229425 371.229425 0 1 0-117.701149 270.006437l81.449195 81.92a488.45977 488.45977 0 1 1 134.650115-225.515403z"  horiz-adv-x="1024" />

    
    <glyph glyph-name="fsux_tubiao_bingtu" unicode="&#58882;" d="M483.556 355.55600000000004V750.933C292.978 736.711 142.222 577.423 142.222 384c0-204.8 164.978-369.778 369.778-369.778 193.422 0 352.711 150.756 366.933 341.334H483.556zM540.444 779.378v-366.934h366.934C896 608.711 736.71 768 540.444 779.378z"  horiz-adv-x="1024" />

    
    <glyph glyph-name="youjian" unicode="&#58903;" d="M758.5 798H265.6c-110.8 0-201-90.2-201-200.9V171c0-110.8 90.1-200.9 200.9-200.9h492.9c110.8 0 200.9 90.1 200.9 200.9V597.1C959.4 707.8 869.2 798 758.5 798z m-492.9-56.4h492.9c79.7 0 144.6-64.9 144.6-144.6v-9.4L521.7 406.4c-6.2-2.9-13.3-2.9-19.5 0L121 587.7v9.4c0 79.7 64.8 144.5 144.6 144.5z m492.9-715.2H265.6C185.9 26.4 121 91.3 121 171V525.3l372-176.9 6.9-3.3c0.1 0 0.2 0 0.3-0.1l0.9-0.3c3.4-1.1 7.1-1.8 11-1.8 3.9 0 7.5 0.7 11 1.8l0.9 0.3c0.1 0 0.2 0 0.3 0.1l6.9 3.3 372 176.9v-354.4c-0.2-79.7-65-144.5-144.7-144.5z"  horiz-adv-x="1024" />

    
    <glyph glyph-name="warning" unicode="&#58956;" d="M512-64A448 448 0 1 0 512 832a448 448 0 0 0 0-896z m0 64A384 384 0 1 1 512 768a384 384 0 0 1 0-768z m-32 223.68a32 32 0 0 0 64 0v-63.36a32 32 0 1 0-64 0v63.36z m0 384.512C480 625.664 494.208 640 512 640c17.664 0 32-14.592 32-31.872v-256.32A31.808 31.808 0 0 0 512 320a32.128 32.128 0 0 0-32 31.808V608.128z"  horiz-adv-x="1024" />

    
    <glyph glyph-name="chuzu" unicode="&#58901;" d="M304.596875 501.609375l186.4696875 11.6775 2.4609375-39.29625-186.4696875-11.6775zM305.84375 406.03125H492.3125v-39.375H305.84375zM319.625 339.1875h158.90625v-39.375H319.625zM488 158.0625h240.375v-39.375H488zM526.53125 512.0625h163.5v-39.375H526.53125zM526.53125 406.03125h163.5v-39.375H526.53125zM526.53125 289.78125h163.5v-39.375H526.53125zM379.34375 502.875h39.375V118.6875h-39.375zM299.0721875 137.63437499999998l22.9753125 195.53625 39.106875-4.59375-22.9753125-195.5371875zM438.0415625 329.791875l39.309375 2.3090625 11.49375-195.6975-39.3075-2.3090625zM521.9375 512.0625h39.375V118.6875h-39.375zM650.65625 512.0625h39.375V118.6875h-39.375zM831.03125 6.5625H198.59375c-10.875 0-19.6875 8.8125-19.6875 19.6875V658.78125c0 10.875 8.8125 19.6875 19.6875 19.6875h166.78125c10.875 0 19.6875-8.8125 19.6875-19.6875s-8.8125-19.6875-19.6875-19.6875H218.28125v-593.15625h593.15625V639.09375H664.4375c-10.875 0-19.6875 8.8125-19.6875 19.6875s8.8125 19.6875 19.6875 19.6875h166.59375c10.875 0 19.6875-8.8125 19.6875-19.6875v-632.53125c0-10.875-8.71875-19.6875-19.6875-19.6875zM658.25 588.09375H371.375c-10.875 0-19.6875 8.8125-19.6875 19.6875v77.0625c0 10.875 8.8125 19.6875 19.6875 19.6875h59.53125c7.875 39.09375 42.46875 68.625 83.90625 68.625s76.03125-29.53125 83.90625-68.625H658.25c10.875 0 19.6875-8.8125 19.6875-19.6875v-77.0625c0-10.875-8.8125-19.6875-19.6875-19.6875z m-267.1875 39.375h247.5v37.6875h-58.03125c-5.34375 0-10.5 2.15625-14.25 6.09375-3.75 3.84375-5.71875 9.09375-5.4375 14.4375 0 0.1875 0.09375 1.59375 0.09375 1.78125 0 25.59375-20.71875 46.3125-46.21875 46.3125-25.5 0-46.21875-20.71875-46.21875-46.21875l0.09375-2.34375c0.09375-5.25-1.96875-10.40625-5.625-14.15625-3.75-3.75-8.8125-5.90625-14.0625-5.90625H391.0625v-37.6875z"  horiz-adv-x="1024" />

    
    <glyph glyph-name="shoujihao" unicode="&#59064;" d="M245.344 832h536.704a85.344 85.344 0 0 0 85.312-85.344v-725.312A85.344 85.344 0 0 0 782.08-64H245.344A85.344 85.344 0 0 0 160 21.344V746.656A85.344 85.344 0 0 0 245.344 832z m-2.816-70.72v-636.64h542.304V761.248H242.56z m271.168-778.112a47.168 47.168 0 1 1 0 94.304 47.168 47.168 0 0 1 0-94.304z"  horiz-adv-x="1024" />

    
    <glyph glyph-name="moshi" unicode="&#58896;" d="M320 320H192c-70.656 0-128-57.344-128-128v-128c0-70.656 57.344-128 128-128h128c70.656 0 128 57.344 128 128V192c0 70.656-57.344 128-128 128z m64-256c0-35.392-28.608-64-64-64H192c-35.392 0-64 28.608-64 64V192c0 35.392 28.608 64 64 64h128c35.392 0 64-28.608 64-64v-128z m384 704H640c-70.656 0-128-57.344-128-128v-128c0-70.656 57.344-128 128-128h128c70.656 0 128 57.344 128 128V640c0 70.656-57.344 128-128 128z m64-256c0-35.392-28.672-64-64-64H640c-35.392 0-64 28.608-64 64V640c0 35.392 28.608 64 64 64h128c35.328 0 64-28.608 64-64v-128zM320 768H192c-70.656 0-128-57.344-128-128v-128c0-70.656 57.344-128 128-128h128c70.656 0 128 57.344 128 128V640c0 70.656-57.344 128-128 128z m64-256c0-35.392-28.608-64-64-64H192c-35.392 0-64 28.608-64 64V640c0 35.392 28.608 64 64 64h128c35.392 0 64-28.608 64-64v-128z m384-192H640c-70.656 0-128-57.344-128-128v-128c0-70.656 57.344-128 128-128h128c70.656 0 128 57.344 128 128V192c0 70.656-57.344 128-128 128z m64-256c0-35.392-28.672-64-64-64H640c-35.392 0-64 28.608-64 64V192c0 35.392 28.608 64 64 64h128c35.328 0 64-28.608 64-64v-128z"  horiz-adv-x="1024" />

    
    <glyph glyph-name="qiehuan" unicode="&#58920;" d="M448 64v-64l-128.32 128L448 256v-64h192a192 192 0 0 1 115.84 345.152l0.704 0.896 90.24 90.24A320 320 0 0 0 640 64l-192.064-0.064zM576 704V768l131.008-128L576 512V576H384a192 192 0 0 1-115.712-345.216l-91.072-91.008A320 320 0 0 0 384 704h192.064z"  horiz-adv-x="1024" />

    
    <glyph glyph-name="mima" unicode="&#60355;" d="M882.40625 458.90625l-83.4375 84.5625-79.21875-80.34375h-26.34375l-80.4375 79.875-79.21875-78.65625c-28.96875 93-113.8125 160.3125-213.9375 160.3125-124.03125 0-224.625-103.40625-224.625-230.90625S195.78125 162.84375 319.8125 162.84375c100.59375 0 185.71875 67.96875 214.3125 161.625h325.125c37.03125 0 67.03125 30.375 67.03125 67.875V395.25c0 29.25-18.28125 54.09375-43.875 63.65625zM319.8125 301.59375c-49.59375 0-89.8125 41.34375-89.8125 92.34375s40.21875 92.34375 89.8125 92.34375 89.8125-41.34375 89.8125-92.34375-40.21875-92.34375-89.8125-92.34375z"  horiz-adv-x="1024" />

    
    <glyph glyph-name="youxiang" unicode="&#58905;" d="M850.93365623 694.68918518a84.73341437 84.73341437 0 0 0 84.73341437-84.73341435v-508.40048496a84.73341437 84.73341437 0 0 0-84.73341437-84.73341437H173.06634377a84.73341437 84.73341437 0 0 0-84.73341437 84.73341437V609.95577083a84.73341437 84.73341437 0 0 0 84.73341437 84.73341435h677.86731246m0 84.73341436H173.06634377a169.46682873 169.46682873 0 0 1-169.46682873-169.46682871v-508.40048496a169.46682873 169.46682873 0 0 1 169.46682873-169.46682751h677.86731246a169.46682873 169.46682873 0 0 1 169.46682873 169.46682751V609.95577083a169.46682873 169.46682873 0 0 1-169.46682873 169.46682871zM850.93365623 694.68918518a83.03874563 83.03874563 0 0 0 28.24447227-5.08400496l-305.60518144-282.44471413h-1.41222312a84.73341437 84.73341437 0 0 0-119.75655911 0h-1.41222312L144.8218715 689.60518022a83.03874563 83.03874563 0 0 0 28.24447227 5.08400496h677.86731246m0 84.73341436H173.06634377a169.46682873 169.46682873 0 0 1-150.82547762-92.64186678l370.00257476-341.7581037a169.46682873 169.46682873 0 0 1 239.51311818 0l370.00257476 341.7581037A169.46682873 169.46682873 0 0 1 850.93365623 779.42259954z"  horiz-adv-x="1024" />

    
    <glyph glyph-name="warning1" unicode="&#58899;" d="M560 368c0-26.496-21.376-48-48-48-26.432 0-48 21.504-48 48V592c0 26.56 21.568 48 48 48 26.624 0 48-21.44 48-48v-224z m0-192c0 26.496-21.376 48-48 48-26.432 0-48-21.504-48-48s21.568-48 48-48c26.624 0 48 21.504 48 48zM512 832C264.64 832 64 631.36 64 384c0-247.424 200.64-448 448-448 247.488 0 448 200.576 448 448 0 247.36-200.512 448-448 448z m0-832.768c-212.48 0-384.768 172.224-384.768 384.768S299.52 768.768 512 768.768 896.64 596.48 896.64 384 724.48-0.768 512-0.768z"  horiz-adv-x="1024" />

    
    <glyph glyph-name="success2" unicode="&#59110;" d="M1015.5 477.2l-5.4 29.5-59-10.9 5.4-29.5c5-27 7.5-54.6 7.5-82.3 0-249.2-202.8-452-452-452S60 134.8 60 384 262.8 836 512 836c48.3 0 95.8-7.6 141.2-22.5l28.5-9.4 18.7 57-28.5 9.4C620.5 887.4 566.7 896 512 896c-69.1 0-136.2-13.5-199.3-40.2C251.7 830 197 793.1 150 746c-47-47-83.9-101.8-109.7-162.7C13.5 520.2 0 453.1 0 384s13.5-136.2 40.2-199.3C66 123.7 102.9 69 150 22c47-47 101.8-83.9 162.7-109.7 63.1-26.7 130.2-40.2 199.3-40.2s136.2 13.5 199.3 40.2C772.3-62 827-25 874 22c47 47 83.9 101.8 109.7 162.7 26.7 63.1 40.2 130.2 40.2 199.3 0.1 31.3-2.7 62.6-8.4 93.2zM437.5 332L230.2 496l-87.7-72.3L503 64.3S635 398 994 760l-19 37.8S716.9 663.6 437.5 332z"  horiz-adv-x="1024" />

    
    <glyph glyph-name="yuanqumianji" unicode="&#58893;" d="M311.67529297 152.62792968999997c1.6809082-4.94384766 2.57080078-10.28320313 2.57080078-15.8203125v-98.87695313a49.43847655 49.43847655 0 0 0-49.43847656-49.43847656H165.93066406a49.43847655 49.43847655 0 0 0-49.43847656 49.43847656V136.80761718999997a49.43847655 49.43847655 0 0 0 49.43847656 49.43847656h98.87695313c3.26293945 0 6.47644043-0.29663086 9.59106445-0.93933106l436.29455567 436.29455567A49.68566895 49.68566895 0 0 0 709.75390625 631.19238281V730.06933594a49.43847655 49.43847655 0 0 0 49.43847656 49.43847656h98.87695313a49.43847655 49.43847655 0 0 0 49.43847656-49.43847656v-98.87695313a49.43847655 49.43847655 0 0 0-49.43847656-49.43847656H759.19238281a49.38903809 49.38903809 0 0 0-15.8203125 2.57080078L311.67529297 152.62792968999997zM764.77893067 186.24609375H858.06933594a49.43847655 49.43847655 0 0 0 49.43847656-49.43847656v-98.87695313a49.43847655 49.43847655 0 0 0-49.43847656-49.43847656H759.19238281a49.43847655 49.43847655 0 0 0-49.43847656 49.43847656V131.22106932999998L665.90197754 87.36914062000005h-69.95544435L808.63085938 300.05346679v-69.95544433L764.77893067 186.24609375z m-513.41857911 395.5078125H165.93066406a49.43847655 49.43847655 0 0 0-49.43847656 49.43847656V730.06933594A49.43847655 49.43847655 0 0 0 165.93066406 779.5078125h98.87695313a49.43847655 49.43847655 0 0 0 49.43847656-49.43847656v-85.4296875L350.23730469 680.63085938h69.90600586L215.36914062 475.85668945v69.90600586L251.36035156 581.75390625zM629.91076661 680.63085938L215.36914062 266.08923339v69.95544434L559.95532227 680.63085938h69.95544434zM808.63085938 439.86547852L456.13452148 87.36914062000005h-69.90600585L808.63085938 509.77148438v-69.90600586z"  horiz-adv-x="1024" />

    
    <glyph glyph-name="dataanalysis" unicode="&#58935;" d="M786.77 151.64999999999998L584.42000001 354h286.07999998a358.26000001 358.26000001 0 0 0-83.72999999-202.35M151.97 384C152 572.7000000099999 297.29 727.2 482 742.50000001V384c0-8.31 3.42000001-15.81 8.85-21.24l253.5-253.50000001A358.32 358.32 0 0 0 512 24C313.19 24 152 185.15999999999997 152 384m718.50000001 30H542V742.50000001A359.70000001 359.70000001 0 0 0 870.50000001 414M512 804C280.4 804 92 615.6 92 384s188.4-420 420-420 420 188.4 420 420S743.6 804 512 804"  horiz-adv-x="1024" />

    
    <glyph glyph-name="warning2" unicode="&#58910;" d="M512-51.2A435.2 435.2 0 1 0 947.2 384 435.638857 435.638857 0 0 0 512-51.2zM512 896a512 512 0 1 1 512-512 513.536 513.536 0 0 1-512 512z m0 0M459.556571 157.037714a56.027429 56.027429 0 0 1 32.621715-50.468571 60.928 60.928 0 0 1 65.243428 0 60.196571 60.196571 0 0 1-32.621714 113.517714 60.635429 60.635429 0 0 1-65.243429-63.049143z m58.514286 510.756572a64.365714 64.365714 0 0 1-65.243428-63.049143v-258.486857a64.292571 64.292571 0 0 1 65.243428-63.049143 60.635429 60.635429 0 0 1 65.243429 63.049143V611.108571a63.561143 63.561143 0 0 1-65.243429 56.758858M498.322286 562.688h30.281143v-30.281143h-30.281143z"  horiz-adv-x="1024" />

    
    </font>
</defs>
</svg>
